<svg width="66" height="51" viewBox="0 0 66 51" fill="none" xmlns="http://www.w3.org/2000/svg">
<path d="M22.6091 20.4766L9.02011 29.1805C8.96824 29.2138 8.91027 29.2366 8.84952 29.2475C8.78877 29.2585 8.72644 29.2574 8.66608 29.2442C8.60573 29.2311 8.54854 29.2063 8.4978 29.1711C8.44706 29.136 8.40377 29.0912 8.37039 29.0394L1.93942 19.0818C1.90591 19.03 1.88298 18.9721 1.87191 18.9115C1.86085 18.8509 1.86189 18.7888 1.87495 18.7286C1.88802 18.6684 1.91287 18.6114 1.94807 18.5609C1.98327 18.5103 2.02814 18.4672 2.08011 18.4339L15.6691 9.73008C15.7209 9.69655 15.779 9.67361 15.8398 9.66261C15.9006 9.65161 15.9631 9.65276 16.0235 9.66599L20.5286 10.6444C22.945 6.98359 25.3786 5.3779 27.3927 5.03169C29.3069 4.70244 30.8611 5.47263 31.7369 6.72239C32.6071 7.96422 32.7953 9.67923 31.9868 11.25C31.0079 13.152 28.5542 14.8401 24.0555 15.1101C23.9462 15.1166 23.8426 15.0919 23.7522 15.0448L22.8155 20.1677C22.7914 20.2996 22.7133 20.408 22.6083 20.4753L22.6091 20.4766ZM21.7389 10.9073L23.9596 11.3895C24.2139 11.4448 24.3748 11.6946 24.3199 11.9475C24.3181 11.9555 24.3164 11.9635 24.3142 11.9709L23.95 13.9633L23.9856 13.9598C28.0011 13.7186 30.1422 12.3086 30.9567 10.7262C31.5591 9.55627 31.4259 8.28868 30.7881 7.37886C30.1558 6.47697 29.0137 5.92331 27.5902 6.16829C25.9059 6.45793 23.8522 7.81982 21.7389 10.9073ZM21.0767 14.091C21.1235 14.1756 21.1499 14.2714 21.1486 14.373C21.1717 14.5331 21.1676 14.6996 21.1314 14.8663C21.0499 15.2415 20.8231 15.5483 20.523 15.7406C20.2228 15.9328 19.8485 16.0111 19.4718 15.9293C19.0952 15.8475 18.7876 15.6212 18.5942 15.3217C18.4946 15.1681 18.4264 14.9965 18.3937 14.8166C18.3609 14.6368 18.3641 14.4523 18.4032 14.2738C18.4716 13.959 18.6419 13.6921 18.8728 13.501C19.2447 12.7763 19.6188 12.1069 19.9947 11.4884L16.0149 10.624L2.98514 18.9697L8.90602 28.1381L21.9299 19.7963L23.3173 12.21L21.189 11.7477C20.8912 12.2238 20.593 12.7355 20.2943 13.283C20.5657 13.394 20.7886 13.5834 20.9404 13.8185C20.9953 13.9043 21.0413 13.9954 21.0767 14.091Z" fill="#FDB614"/>
<path d="M64.873 16.2179C65.6519 17.3276 65.8272 18.5831 65.3987 19.9845L57.3692 46.4392C56.9991 47.6852 56.2546 48.7314 55.1356 49.5779C54.0166 50.4244 52.8243 50.8479 51.5586 50.8484H24.6077C23.1088 50.8484 21.6633 50.3276 20.2713 49.2861C18.8792 48.2445 17.9106 46.9647 17.3655 45.4466C16.8984 44.1423 16.879 42.9061 17.3075 41.7381C17.3075 41.6601 17.3366 41.3975 17.395 40.95C17.4533 40.5025 17.4922 40.1425 17.5118 39.87C17.5315 39.7141 17.5023 39.5048 17.4243 39.2421C17.3464 38.9794 17.3172 38.7897 17.3368 38.673C17.3755 38.4588 17.4535 38.2544 17.5707 38.0598C17.6879 37.8652 17.8484 37.6365 18.0523 37.3739C18.2561 37.1112 18.4166 36.8825 18.5338 36.6879C18.9813 35.9482 19.4192 35.0576 19.8477 34.016C20.2762 32.9744 20.568 32.0838 20.7233 31.3441C20.7817 31.1495 20.7866 30.8576 20.738 30.4685C20.6895 30.0794 20.6846 29.8068 20.7233 29.6509C20.7817 29.4367 20.9471 29.1642 21.2196 28.8332C21.4922 28.5023 21.6576 28.2786 21.716 28.1621C22.1247 27.4611 22.5336 26.5656 22.9424 25.4756C23.3512 24.3855 23.5946 23.5096 23.6725 22.8479C23.6921 22.6729 23.6678 22.3614 23.5997 21.9134C23.5316 21.4653 23.5365 21.1928 23.6144 21.0957C23.6923 20.8429 23.9065 20.5461 24.2571 20.2054C24.6076 19.8648 24.8219 19.6457 24.8998 19.5481C25.2699 19.0417 25.6836 18.2193 26.1409 17.0806C26.5982 15.942 26.8659 15.0029 26.9438 14.2632C26.9634 14.1073 26.9343 13.859 26.8563 13.5184C26.7783 13.1778 26.7589 12.9199 26.7982 12.7449C26.8369 12.589 26.9244 12.4138 27.0606 12.2192C27.1969 12.0247 27.3721 11.801 27.5863 11.5481C27.8005 11.2951 27.966 11.0907 28.0826 10.9349C28.2386 10.701 28.3991 10.4043 28.5642 10.0446C28.7293 9.68485 28.8754 9.34419 29.0025 9.02256C29.1295 8.70094 29.2851 8.35046 29.4693 7.97112C29.6534 7.59179 29.8431 7.28029 30.0383 7.03662C30.2335 6.79296 30.4914 6.56431 30.8118 6.35069C31.1322 6.13706 31.4826 6.02504 31.8631 6.01462C32.2436 6.00421 32.7059 6.05765 33.2498 6.17494L33.2203 6.26244C33.96 6.08748 34.4563 6 34.7091 6H56.9303C58.3709 6 59.4804 6.54508 60.2588 7.63525C61.0372 8.72542 61.2124 9.99077 60.7845 11.4313L52.7835 37.886C52.0826 40.2025 51.3866 41.6965 50.6954 42.3679C50.0042 43.0394 48.7536 43.3751 46.9435 43.3752H21.5688C21.0434 43.3752 20.6736 43.5213 20.4593 43.8135C20.2451 44.1247 20.2353 44.5433 20.4298 45.0693C20.897 46.4319 22.2986 47.1133 24.6347 47.1133H51.5856C52.1503 47.1133 52.6954 46.9623 53.2208 46.6603C53.7462 46.3584 54.0869 45.9545 54.2428 45.4486L63.0024 16.6287C63.1386 16.2003 63.1874 15.6454 63.1488 14.9641C63.8884 15.2563 64.4626 15.6749 64.8714 16.2199L64.873 16.2179ZM33.8047 16.2768C33.7268 16.5297 33.7461 16.7488 33.8628 16.9341C33.9794 17.1195 34.174 17.2119 34.4465 17.2113H52.1996C52.4525 17.2113 52.7007 17.1189 52.9444 16.9341C53.1881 16.7493 53.3486 16.5302 53.426 16.2768L54.0391 14.4078C54.1171 14.1549 54.0977 13.9358 53.9811 13.7505C53.8645 13.5652 53.6699 13.4728 53.3973 13.4733H35.6443C35.3914 13.4733 35.1431 13.5657 34.8994 13.7505C34.6557 13.9353 34.4952 14.1544 34.4178 14.4078L33.8047 16.2768ZM31.3806 23.752C31.3027 24.0049 31.322 24.224 31.4386 24.4093C31.5553 24.5946 31.7499 24.687 32.0224 24.6865H49.7755C50.0283 24.6865 50.2766 24.5941 50.5203 24.4093C50.7639 24.2245 50.9245 24.0054 51.0018 23.752L51.615 21.883C51.6929 21.6301 51.6736 21.411 51.557 21.2257C51.4403 21.0404 51.2457 20.948 50.9732 20.9485H33.2201C32.9673 20.9485 32.719 21.0409 32.4753 21.2257C32.2317 21.4105 32.0711 21.6296 31.9938 21.883L31.3806 23.752Z" fill="#FDB614"/>
</svg>
