<svg width="58" height="62" viewBox="0 0 58 62" fill="none" xmlns="http://www.w3.org/2000/svg">
<path d="M28.1218 39.0488L8.65548 28.8262L3.62881 34.8154C10.6873 38.5392 17.1912 42.056 24.2296 45.7798L28.1218 39.074V39.0488ZM34.5098 0V10.818H39.5515C39.8978 10.7986 40.2434 10.8654 40.5575 11.0125C40.8717 11.1595 41.1444 11.3822 41.3515 11.6606C42.2892 13.0734 41.0036 14.4711 40.1162 15.45C37.5953 18.2302 31.8679 24.4313 30.6175 25.8946C30.4245 26.1393 30.1786 26.337 29.8983 26.4729C29.618 26.6088 29.3106 26.6794 28.9991 26.6794C28.6876 26.6794 28.3802 26.6088 28.0999 26.4729C27.8196 26.337 27.5737 26.1393 27.3807 25.8946C26.09 24.3809 20.0449 17.8921 17.6399 15.1826C16.808 14.2441 15.7745 12.9624 16.6316 11.6506C16.8381 11.3729 17.1101 11.1506 17.4233 11.0036C17.7364 10.8566 18.0811 10.7894 18.4265 10.8079H23.4682V0H34.5098ZM17.8719 23.3818L9.97642 27.3074L29.3823 37.5149L48.8234 27.2872L40.4843 22.9479L41.8456 21.4342L49.4082 25.3396L54.8887 20.1829L46.5748 15.6417C46.8944 15.0086 47.1057 14.3264 47.1999 13.6234L57.6011 19.1233C57.6692 19.1597 57.7306 19.2075 57.7826 19.2645C57.8516 19.3334 57.9062 19.4152 57.9435 19.5053C57.9808 19.5953 58 19.6918 58 19.7893C58 19.8868 57.9808 19.9833 57.9435 20.0733C57.9062 20.1634 57.8516 20.2452 57.7826 20.314L51.1023 26.8735L57.5709 34.6237C57.6977 34.7759 57.7594 34.9722 57.7424 35.1697C57.7254 35.3672 57.6311 35.5499 57.4801 35.6782C57.4321 35.7138 57.3815 35.7458 57.3289 35.7741L51.5056 38.852V50.3966C51.5054 50.5442 51.4617 50.6884 51.3802 50.8113C51.2986 50.9342 51.1826 51.0304 51.0468 51.0879L30.0427 61.7545C29.9613 61.8445 29.8592 61.9132 29.7453 61.9548C29.6313 61.9964 29.509 62.0095 29.3888 61.9931C29.2686 61.9767 29.1543 61.9313 29.0556 61.8607C28.957 61.7901 28.877 61.6965 28.8226 61.588L7.7782 51.0626C7.65531 51.0002 7.5521 50.9049 7.48001 50.7873C7.40793 50.6698 7.36979 50.5345 7.36982 50.3966V38.9327L1.44572 35.8246C1.39309 35.7963 1.34254 35.7642 1.29447 35.7287C1.14348 35.6004 1.04923 35.4176 1.03223 35.2201C1.01524 35.0226 1.07687 34.8264 1.20371 34.6741L7.50595 27.1056L0.190314 20.1829C0.123991 20.1084 0.0731511 20.0214 0.0407569 19.927C0.0083627 19.8326 -0.00493711 19.7328 0.00163275 19.6332C0.00820262 19.5336 0.0345107 19.4364 0.0790234 19.3471C0.123536 19.2578 0.185363 19.1783 0.260899 19.1132C0.306459 19.0766 0.355421 19.0445 0.407111 19.0173L10.9646 13.0381C11.0137 13.768 11.1682 14.4869 11.4234 15.1725L2.87759 20.0365L8.84202 25.5868L16.4501 21.8177L17.887 23.3869L17.8719 23.3818ZM50.22 28.9018L30.7889 39.1043L34.5753 45.8252L55.0197 34.7246L50.22 28.9018Z" fill="#FDB614"/>
</svg>
