<svg width="153" height="58" viewBox="0 0 153 58" fill="none" xmlns="http://www.w3.org/2000/svg">
<path d="M11.072 52.816C10.9333 52.9653 10.7147 53.12 10.416 53.28C10.1173 53.4293 9.77067 53.568 9.376 53.696C8.992 53.824 8.59733 53.9253 8.192 54C7.78667 54.0853 7.40267 54.128 7.04 54.128C6.08 54.128 5.216 53.9893 4.448 53.712C3.68 53.424 3.024 53.0293 2.48 52.528C1.936 52.016 1.52 51.4133 1.232 50.72C0.944 50.0267 0.8 49.2693 0.8 48.448C0.8 47.3707 0.96 46.4373 1.28 45.648C1.61067 44.848 2.05333 44.1867 2.608 43.664C3.17333 43.1307 3.81867 42.736 4.544 42.48C5.28 42.224 6.048 42.096 6.848 42.096C7.60533 42.096 8.29867 42.1813 8.928 42.352C9.55733 42.512 10.0907 42.7147 10.528 42.96L9.776 45.12C9.584 45.0133 9.328 44.9067 9.008 44.8C8.688 44.6933 8.36267 44.608 8.032 44.544C7.70133 44.4693 7.408 44.432 7.152 44.432C6.512 44.432 5.94667 44.512 5.456 44.672C4.96533 44.832 4.54933 45.072 4.208 45.392C3.87733 45.712 3.62667 46.112 3.456 46.592C3.28533 47.0613 3.2 47.6107 3.2 48.24C3.2 48.7947 3.296 49.296 3.488 49.744C3.68 50.1813 3.94667 50.5547 4.288 50.864C4.64 51.1733 5.05067 51.408 5.52 51.568C6 51.728 6.528 51.808 7.104 51.808C7.43467 51.808 7.73867 51.7867 8.016 51.744C8.29333 51.6907 8.528 51.6107 8.72 51.504V50.08H6.688V47.84H11.072V52.816ZM12.9875 48.128C12.9875 47.3173 13.1422 46.5493 13.4515 45.824C13.7608 45.0987 14.1875 44.4587 14.7315 43.904C15.2862 43.3387 15.9262 42.896 16.6515 42.576C17.3768 42.256 18.1555 42.096 18.9875 42.096C19.8088 42.096 20.5822 42.256 21.3075 42.576C22.0328 42.896 22.6728 43.3387 23.2275 43.904C23.7928 44.4587 24.2302 45.0987 24.5395 45.824C24.8595 46.5493 25.0195 47.3173 25.0195 48.128C25.0195 48.96 24.8595 49.7387 24.5395 50.464C24.2302 51.1893 23.7928 51.8293 23.2275 52.384C22.6728 52.928 22.0328 53.3547 21.3075 53.664C20.5822 53.9733 19.8088 54.128 18.9875 54.128C18.1555 54.128 17.3768 53.9733 16.6515 53.664C15.9262 53.3547 15.2862 52.928 14.7315 52.384C14.1875 51.8293 13.7608 51.1893 13.4515 50.464C13.1422 49.7387 12.9875 48.96 12.9875 48.128ZM15.3875 48.128C15.3875 48.6507 15.4782 49.1413 15.6595 49.6C15.8515 50.048 16.1128 50.448 16.4435 50.8C16.7848 51.1413 17.1742 51.408 17.6115 51.6C18.0595 51.792 18.5448 51.888 19.0675 51.888C19.5688 51.888 20.0328 51.792 20.4595 51.6C20.8968 51.408 21.2755 51.1413 21.5955 50.8C21.9155 50.448 22.1662 50.048 22.3475 49.6C22.5288 49.1413 22.6195 48.6507 22.6195 48.128C22.6195 47.5947 22.5235 47.0987 22.3315 46.64C22.1502 46.1813 21.8942 45.7813 21.5635 45.44C21.2435 45.088 20.8648 44.816 20.4275 44.624C19.9902 44.432 19.5155 44.336 19.0035 44.336C18.4915 44.336 18.0168 44.432 17.5795 44.624C17.1422 44.816 16.7582 45.088 16.4275 45.44C16.0968 45.7813 15.8408 46.1813 15.6595 46.64C15.4782 47.0987 15.3875 47.5947 15.3875 48.128ZM31.7356 42.224H39.6716V44.464H36.8076V54H34.4876V44.464H31.7356V42.224ZM40.7844 48.128C40.7844 47.3173 40.939 46.5493 41.2484 45.824C41.5577 45.0987 41.9844 44.4587 42.5284 43.904C43.083 43.3387 43.723 42.896 44.4484 42.576C45.1737 42.256 45.9524 42.096 46.7844 42.096C47.6057 42.096 48.379 42.256 49.1044 42.576C49.8297 42.896 50.4697 43.3387 51.0244 43.904C51.5897 44.4587 52.027 45.0987 52.3364 45.824C52.6564 46.5493 52.8164 47.3173 52.8164 48.128C52.8164 48.96 52.6564 49.7387 52.3364 50.464C52.027 51.1893 51.5897 51.8293 51.0244 52.384C50.4697 52.928 49.8297 53.3547 49.1044 53.664C48.379 53.9733 47.6057 54.128 46.7844 54.128C45.9524 54.128 45.1737 53.9733 44.4484 53.664C43.723 53.3547 43.083 52.928 42.5284 52.384C41.9844 51.8293 41.5577 51.1893 41.2484 50.464C40.939 49.7387 40.7844 48.96 40.7844 48.128ZM43.1844 48.128C43.1844 48.6507 43.275 49.1413 43.4564 49.6C43.6484 50.048 43.9097 50.448 44.2404 50.8C44.5817 51.1413 44.971 51.408 45.4084 51.6C45.8564 51.792 46.3417 51.888 46.8644 51.888C47.3657 51.888 47.8297 51.792 48.2564 51.6C48.6937 51.408 49.0724 51.1413 49.3924 50.8C49.7124 50.448 49.963 50.048 50.1444 49.6C50.3257 49.1413 50.4164 48.6507 50.4164 48.128C50.4164 47.5947 50.3204 47.0987 50.1284 46.64C49.947 46.1813 49.691 45.7813 49.3604 45.44C49.0404 45.088 48.6617 44.816 48.2244 44.624C47.787 44.432 47.3124 44.336 46.8004 44.336C46.2884 44.336 45.8137 44.432 45.3764 44.624C44.939 44.816 44.555 45.088 44.2244 45.44C43.8937 45.7813 43.6377 46.1813 43.4564 46.64C43.275 47.0987 43.1844 47.5947 43.1844 48.128ZM59.5325 42.224H67.4685V44.464H64.6045V54H62.2845V44.464H59.5325V42.224ZM68.5813 48.128C68.5813 47.3173 68.7359 46.5493 69.0453 45.824C69.3546 45.0987 69.7813 44.4587 70.3253 43.904C70.8799 43.3387 71.5199 42.896 72.2453 42.576C72.9706 42.256 73.7493 42.096 74.5813 42.096C75.4026 42.096 76.1759 42.256 76.9013 42.576C77.6266 42.896 78.2666 43.3387 78.8213 43.904C79.3866 44.4587 79.8239 45.0987 80.1333 45.824C80.4533 46.5493 80.6133 47.3173 80.6133 48.128C80.6133 48.96 80.4533 49.7387 80.1333 50.464C79.8239 51.1893 79.3866 51.8293 78.8213 52.384C78.2666 52.928 77.6266 53.3547 76.9013 53.664C76.1759 53.9733 75.4026 54.128 74.5813 54.128C73.7493 54.128 72.9706 53.9733 72.2453 53.664C71.5199 53.3547 70.8799 52.928 70.3253 52.384C69.7813 51.8293 69.3546 51.1893 69.0453 50.464C68.7359 49.7387 68.5813 48.96 68.5813 48.128ZM70.9813 48.128C70.9813 48.6507 71.0719 49.1413 71.2533 49.6C71.4453 50.048 71.7066 50.448 72.0373 50.8C72.3786 51.1413 72.7679 51.408 73.2053 51.6C73.6533 51.792 74.1386 51.888 74.6613 51.888C75.1626 51.888 75.6266 51.792 76.0533 51.6C76.4906 51.408 76.8693 51.1413 77.1892 50.8C77.5093 50.448 77.7599 50.048 77.9413 49.6C78.1226 49.1413 78.2133 48.6507 78.2133 48.128C78.2133 47.5947 78.1173 47.0987 77.9253 46.64C77.7439 46.1813 77.4879 45.7813 77.1573 45.44C76.8373 45.088 76.4586 44.816 76.0213 44.624C75.5839 44.432 75.1093 44.336 74.5973 44.336C74.0853 44.336 73.6106 44.432 73.1733 44.624C72.7359 44.816 72.3519 45.088 72.0213 45.44C71.6906 45.7813 71.4346 46.1813 71.2533 46.64C71.0719 47.0987 70.9813 47.5947 70.9813 48.128ZM86.4943 42.224C87.4649 42.224 88.2863 42.3893 88.9583 42.72C89.6303 43.04 90.1423 43.4987 90.4943 44.096C90.8463 44.6827 91.0223 45.3813 91.0223 46.192C91.0223 46.672 90.9476 47.1573 90.7983 47.648C90.6596 48.128 90.4303 48.5653 90.1103 48.96C89.8009 49.3547 89.3796 49.6747 88.8463 49.92C88.3236 50.1547 87.6783 50.272 86.9103 50.272H85.2463V54H82.9263V42.224H86.4943ZM86.8943 48.016C87.2463 48.016 87.5396 47.9573 87.7743 47.84C88.0089 47.712 88.1903 47.5573 88.3183 47.376C88.4569 47.184 88.5529 46.9867 88.6063 46.784C88.6703 46.5813 88.7023 46.4053 88.7023 46.256C88.7023 46.1387 88.6809 45.984 88.6383 45.792C88.6063 45.5893 88.5316 45.3867 88.4143 45.184C88.2969 44.9813 88.1156 44.8107 87.8703 44.672C87.6356 44.5333 87.3156 44.464 86.9103 44.464H85.2463V48.016H86.8943Z" fill="white"/>
<path d="M142.63 1.39001V35.21C142.63 42.51 136.71 48.44 129.4 48.44H107" stroke="white" stroke-width="1.5" stroke-miterlimit="10" stroke-linejoin="round"/>
<path d="M133.62 10.01L142.63 1L151.64 10.01" stroke="white" stroke-width="1.5" stroke-miterlimit="10" stroke-linecap="round" stroke-linejoin="round"/>
</svg>
