<svg width="32" height="19" viewBox="0 0 32 19" fill="none" xmlns="http://www.w3.org/2000/svg">
<path d="M1.8177 0H26.1822C26.6822 0 27.138 0.213084 27.4661 0.560028C27.7942 0.904241 27.9999 1.38231 27.9999 1.90683V3.2509C27.8124 3.29734 27.6301 3.36017 27.4531 3.44213C27.0859 3.61423 26.763 3.85463 26.4843 4.15787L25.8567 4.84356H1.16406V15.4896C1.16406 15.6781 1.23698 15.8474 1.35677 15.9731C1.47656 16.0988 1.63802 16.1753 1.8177 16.1753H17.8645L17.6041 17.3964H1.8177C1.31771 17.3964 0.861977 17.1806 0.533853 16.8364C0.205729 16.4922 0 16.0168 0 15.4923V1.90683C0 1.38231 0.205729 0.904241 0.533853 0.560028C0.861977 0.213084 1.31771 0 1.8177 0ZM29.2734 5.75873C29.1041 5.58663 28.9062 5.5074 28.677 5.51013C28.4505 5.5156 28.2551 5.60848 28.0937 5.78332L26.7864 7.21207L30.4583 10.9301L31.7786 9.4877C31.9374 9.31833 32.0025 9.10251 31.9999 8.86211C31.9973 8.62717 31.9166 8.41135 31.7551 8.25018L29.2734 5.75873ZM24.2812 17.7297L19.7916 18.9918C19.6302 19.0246 19.5677 18.959 19.5937 18.7978L20.6093 14.0253L25.6197 8.47692L29.2864 12.1813L24.2812 17.7297ZM3.31249 12.072H15.7734V13.2932H3.31249V12.072ZM3.31249 8.46053H18.3229V9.68166H3.31249V8.46053ZM1.16406 3.62243H26.8333V1.90683C26.8333 1.71833 26.7604 1.54896 26.6406 1.42329C26.5208 1.29763 26.3593 1.22114 26.1796 1.22114H1.8177C1.63802 1.22114 1.47656 1.29763 1.35677 1.42329C1.23958 1.54896 1.16406 1.71833 1.16406 1.90683V3.62243Z" fill="#626EEF"/>
</svg>
