<svg width="533" height="323" viewBox="0 0 533 323" fill="none" xmlns="http://www.w3.org/2000/svg">
<path d="M195.498 70.0018C196.275 71.9775 197.383 72.4557 198.199 72.4949V73.271C197.131 73.1926 195.498 73.1535 194.006 73.1535C191.987 73.1535 190.118 73.1926 189.019 73.271V72.4949C190.904 72.4165 191.783 72.1342 191.783 71.0523C191.783 70.5976 191.634 70.0096 191.328 69.2256L188.925 62.836H179.516L177.914 66.9598C177.38 68.3083 177.137 69.3589 177.137 70.1507C177.137 71.8442 178.299 72.4322 180.529 72.487V73.2632C179.045 73.1848 177.404 73.1456 176.037 73.1456C174.726 73.1456 173.901 73.1848 173.124 73.2632V72.487C174.137 72.2597 175.299 71.4443 176.187 69.1002L185.367 45.5018H185.995L195.498 70.0018ZM184.275 50.4331L179.799 62.052H188.634L184.275 50.4331Z" fill="#FDB614"/>
<path d="M435.551 247.625C435.551 250.565 436.438 251.929 439.289 251.929V252.956C438.26 252.862 437.231 252.815 436.242 252.815C434.326 252.815 432.551 253.003 431.137 253.513V249.161C429.936 252.078 427.564 253.662 424.163 253.662C418.03 253.662 414.095 249.287 414.143 240.381C414.095 231.459 419.341 227.053 425.239 227.053C427.564 227.053 429.865 227.868 431.137 229.946V220.42C431.137 217.48 430.25 216.116 427.399 216.116V215.089C428.428 215.183 429.457 215.23 430.446 215.23C432.362 215.23 434.137 215.042 435.551 214.532V247.625ZM431.145 246.527V231.96C430.187 229.303 428.2 228.182 425.655 228.182C421.776 228.182 418.87 232.102 418.917 240.381C418.87 248.299 421.218 252.172 425.577 252.172C428.051 252.172 430.375 250.236 431.145 246.527Z" fill="#FDB614"/>
<path d="M494.294 116.995C496.084 118.814 496.556 120.899 496.556 124.89V140.546C496.556 142.365 496.995 143.212 498.291 143.212C499.312 143.212 500.058 142.686 500.828 142.028L501.464 142.992C499.893 144.176 498.707 145.054 496.312 145.054C492.37 145.054 491.459 142.686 491.459 140.044C489.032 144.035 485.475 145.054 482.781 145.054C479.003 145.054 475.619 143.157 475.619 138.751C475.619 134.29 479.066 132.314 484.713 129.946C488.49 128.378 491.467 127.414 491.467 125.156V121.66C491.467 116.924 489.15 115.991 486.228 115.991C484.297 115.991 481.933 116.375 480.637 117.998C482.043 118.359 483.283 119.598 483.283 121.44C483.283 123.369 481.988 124.498 479.977 124.498C478.045 124.498 476.914 123.039 476.914 121.001C476.914 119.347 477.99 118.053 479.561 116.987C481.163 115.944 483.857 114.87 487.469 114.87C490.626 114.878 492.998 115.701 494.294 116.995ZM491.459 127.477C490.854 128.386 489.613 128.966 486.056 130.699C483.574 131.883 480.574 133.506 480.574 137.849C480.574 141.236 482.506 142.804 485.09 142.804C487.352 142.804 489.558 141.62 491.459 138.539V127.477Z" fill="#FDB614"/>
<path d="M72.4363 164.537C73.3865 165.971 74.4703 166.755 76.2452 167.179V168.049C74.8708 167.963 72.4756 167.923 71.0541 167.923C70.0567 167.923 68.706 167.923 66.5856 168.049V167.179C67.9206 167.116 68.5725 166.865 68.5725 166.269C68.5725 165.995 68.4232 165.658 68.1248 165.234L61.795 155.701C60.0594 153.082 59.2505 152.659 57.2401 152.549V163.455C57.2401 166.606 57.8134 167.045 60.7584 167.179V168.049C59.4233 167.963 57.2401 167.923 55.2532 167.923C53.0071 167.923 50.9103 167.963 49.7087 168.049V167.179C52.6537 167.053 53.227 166.606 53.227 163.455V141.981C53.227 138.829 52.6537 138.39 49.7087 138.257V137.387C50.9182 137.473 53.015 137.512 55.2532 137.512C57.2401 137.512 59.4233 137.473 60.7584 137.387V138.257C57.8134 138.382 57.2401 138.829 57.2401 141.981V151.687C59.5882 151.6 61.1353 150.605 62.1955 149.256L66.3421 143.972C67.7636 142.177 68.5646 140.781 68.5646 139.833C68.5646 138.837 67.7164 138.312 65.8788 138.265V137.394C67.528 137.481 69.3499 137.52 70.8578 137.52C72.342 137.52 73.6928 137.481 74.5645 137.394V138.265C72.7818 138.516 71.0934 139.3 69.4442 141.416L62.3683 150.464L72.4363 164.537Z" fill="#FDB614"/>
<path d="M523.807 314.618C523.807 314.618 524.49 314.602 525.903 314.594C527.325 314.586 529.484 314.578 532.429 314.571V314.665C504.095 314.68 397.666 314.743 270.819 314.821C196.181 314.798 128.619 314.774 79.7084 314.759C55.261 314.727 35.4706 314.712 21.7979 314.696C14.9655 314.68 9.65666 314.665 6.05198 314.657C4.25357 314.649 2.88709 314.641 1.9604 314.633C1.04156 314.625 0.5625 314.61 0.5625 314.61C0.5625 314.61 1.0337 314.594 1.9604 314.586C2.88709 314.578 4.26142 314.578 6.05198 314.563C9.65666 314.555 14.9655 314.539 21.7979 314.524C35.4784 314.508 55.261 314.484 79.7084 314.461C128.619 314.445 196.181 314.422 270.819 314.398C397.666 314.477 504.095 314.539 532.429 314.555V314.657C529.477 314.649 527.325 314.641 525.903 314.633C524.49 314.633 523.807 314.618 523.807 314.618Z" fill="#263238"/>
<path d="M491.749 296.492C491.749 296.492 488.82 276.398 489.063 264.7C489.307 253.003 489.047 239.848 489.047 239.848H490.398C490.398 239.848 489.487 263.062 490.485 277.056C491.474 291.043 494.097 296.484 494.097 296.484L491.749 296.492Z" fill="#263238"/>
<path d="M500.474 217.245C500.207 216.563 499.869 215.841 499.241 215.449C498.385 214.908 497.262 215.136 496.304 215.473C492.228 216.916 488.608 224.497 486.966 228.487L492.377 246.692C502.155 237.652 503.851 225.775 500.474 217.245Z" fill="#455A64"/>
<path d="M498.927 216.186C498.935 216.194 498.911 216.273 498.848 216.422C498.778 216.594 498.691 216.814 498.589 217.08C498.354 217.652 498.016 218.484 497.623 219.526C496.822 221.596 495.809 224.481 494.898 227.743C493.995 231.004 493.367 233.999 492.99 236.186C492.801 237.276 492.652 238.162 492.558 238.781C492.511 239.064 492.471 239.299 492.448 239.487C492.416 239.652 492.401 239.73 492.393 239.73C492.385 239.73 492.385 239.644 492.409 239.479C492.424 239.291 492.448 239.056 492.479 238.773C492.542 238.154 492.668 237.268 492.841 236.171C493.186 233.975 493.783 230.965 494.694 227.696C495.605 224.434 496.642 221.541 497.482 219.487C497.898 218.46 498.259 217.637 498.511 217.064C498.636 216.806 498.738 216.586 498.817 216.414C498.88 216.257 498.927 216.186 498.927 216.186Z" fill="#263238"/>
<path d="M489.982 251.059C484.909 248.26 481.917 242.999 481.642 237.213C481.446 233.176 482.694 229.209 484.1 225.414C484.218 225.085 484.367 224.732 484.673 224.56C485.097 224.324 485.632 224.536 486.056 224.771C489.747 226.864 491.977 230.863 493.163 234.932C493.956 237.637 494.364 240.49 493.995 243.281C493.634 246.08 492.032 249.122 489.982 251.059Z" fill="#455A64"/>
<path d="M489.982 251.059C489.974 251.059 489.966 250.972 489.966 250.816C489.958 250.628 489.958 250.4 489.951 250.118C489.951 249.506 489.927 248.636 489.872 247.546C489.778 245.383 489.487 242.396 488.93 239.134C488.372 235.873 487.681 232.956 487.178 230.839C486.927 229.812 486.723 228.966 486.574 228.346C486.511 228.072 486.464 227.844 486.417 227.664C486.377 227.507 486.369 227.429 486.377 227.421C486.385 227.421 486.417 227.5 486.464 227.656C486.519 227.837 486.581 228.056 486.66 228.331C486.825 228.911 487.061 229.757 487.328 230.816C487.869 232.917 488.584 235.841 489.142 239.111C489.699 242.38 489.966 245.375 490.021 247.554C490.053 248.636 490.053 249.522 490.029 250.126C490.013 250.408 490.006 250.635 489.998 250.824C489.998 250.98 489.99 251.059 489.982 251.059Z" fill="#263238"/>
<g opacity="0.3">
<path d="M489.982 251.059C484.909 248.26 481.917 242.999 481.642 237.213C481.446 233.176 482.694 229.209 484.1 225.414C484.218 225.085 484.367 224.732 484.673 224.56C485.097 224.324 485.632 224.536 486.056 224.771C489.747 226.864 491.977 230.863 493.163 234.932C493.956 237.637 494.364 240.49 493.995 243.281C493.634 246.08 492.032 249.122 489.982 251.059Z" fill="black"/>
</g>
<path d="M495.699 281.807C500.694 282.905 504.809 286.417 509.623 288.126C512.812 289.255 516.416 289.655 518.961 291.882C518.348 290.345 516.903 289.318 515.49 288.44C511.524 285.97 507.283 283.948 502.877 282.427C500.608 281.643 498.15 280.992 495.841 281.635" fill="#455A64"/>
<path d="M488.49 286.252C482.238 286.151 475.65 280.835 469.43 280.521C475.932 278.42 485.262 280.137 488.49 286.252Z" fill="#455A64"/>
<path d="M490.924 271.278C494.097 270.133 497.584 270.079 500.922 270.596C504.259 271.113 507.479 272.18 510.675 273.238C510.353 271.066 508.602 269.444 506.945 268.001C505.704 266.919 504.448 265.829 503.026 264.99C501.597 264.159 499.979 263.595 498.322 263.665C496.335 263.752 494.435 264.771 493.139 266.276C491.843 267.789 491.144 269.295 490.924 271.278Z" fill="#455A64"/>
<path d="M478.1 264.379C474.158 261.023 468.197 261.353 463.021 261.462C470.977 265.257 479.545 270.463 486.401 276.006C486.605 272.368 483.071 268.628 478.1 264.379Z" fill="#455A64"/>
<g opacity="0.3">
<path d="M478.1 264.379C474.158 261.023 468.197 261.353 463.021 261.462C470.977 265.257 479.545 270.463 486.401 276.006C486.605 272.368 483.071 268.628 478.1 264.379Z" fill="black"/>
</g>
<path d="M492.699 259.753C494.678 258.436 496.681 257.182 498.754 256.241C500.827 255.3 502.759 253.803 504.754 252.721C507.353 251.317 509.592 249.365 511.979 247.625C514.359 245.884 516.974 244.316 519.895 243.854C517.524 243.368 515.034 243.634 512.694 244.269C510.353 244.904 508.131 245.908 505.916 246.904C502.846 248.283 499.72 249.695 497.207 251.945C494.702 254.187 492.432 256.398 492.699 259.753Z" fill="#455A64"/>
<path d="M509.513 286.252C509.505 286.26 509.443 286.229 509.317 286.166C509.168 286.088 508.987 286.002 508.775 285.884C508.304 285.633 507.628 285.265 506.772 284.833C506.348 284.614 505.885 284.379 505.375 284.144C504.872 283.893 504.33 283.65 503.749 283.399C502.594 282.905 501.299 282.395 499.901 282.058C498.495 281.713 497.105 281.643 495.888 281.956C495.275 282.105 494.702 282.246 494.184 282.466C493.673 282.677 493.21 282.92 492.809 283.171C492.008 283.681 491.451 284.206 491.081 284.598C490.72 284.982 490.547 285.225 490.524 285.21C490.516 285.202 490.555 285.147 490.634 285.022C490.712 284.904 490.838 284.739 491.011 284.536C491.356 284.128 491.906 283.571 492.715 283.038C493.116 282.779 493.579 282.513 494.097 282.301C494.616 282.074 495.205 281.917 495.825 281.768C497.066 281.431 498.519 281.501 499.94 281.854C501.369 282.191 502.665 282.717 503.82 283.226C504.401 283.485 504.943 283.736 505.445 283.987C505.956 284.23 506.411 284.473 506.827 284.7C507.668 285.147 508.335 285.539 508.799 285.813C509.011 285.939 509.183 286.049 509.325 286.135C509.458 286.198 509.521 286.245 509.513 286.252Z" fill="#263238"/>
<path d="M483.817 283.156C483.825 283.14 483.958 283.187 484.21 283.265C484.461 283.352 484.807 283.501 485.231 283.704C486.071 284.12 487.178 284.826 488.223 285.821C489.259 286.817 490.013 287.891 490.461 288.714C490.689 289.122 490.846 289.475 490.948 289.718C491.042 289.961 491.089 290.102 491.081 290.102C491.042 290.118 490.814 289.592 490.327 288.8C489.848 288.009 489.094 286.966 488.074 285.986C487.053 285.006 485.977 284.292 485.168 283.846C484.343 283.407 483.809 283.195 483.817 283.156Z" fill="#263238"/>
<path d="M469.987 264.073C469.987 264.065 470.082 264.089 470.254 264.152C470.443 264.222 470.694 264.308 471.008 264.418C471.346 264.544 471.739 264.685 472.186 264.849C472.65 265.022 473.144 265.273 473.718 265.524C475.964 266.543 478.964 268.26 481.862 270.698C483.291 271.937 484.579 273.199 485.655 274.43C486.731 275.661 487.642 276.821 488.348 277.84C489.063 278.844 489.605 279.69 489.974 280.271C490.147 280.545 490.288 280.764 490.406 280.937C490.5 281.094 490.547 281.172 490.54 281.172C490.532 281.18 490.477 281.102 490.367 280.96C490.257 280.819 490.1 280.6 489.903 280.31C489.511 279.745 488.945 278.914 488.223 277.919C487.5 276.915 486.581 275.77 485.498 274.555C484.414 273.34 483.126 272.086 481.705 270.855C478.83 268.432 475.869 266.7 473.639 265.649C473.082 265.39 472.579 265.132 472.131 264.943C471.684 264.763 471.299 264.606 470.969 264.473C470.663 264.348 470.427 264.246 470.239 264.167C470.066 264.12 469.987 264.081 469.987 264.073Z" fill="#263238"/>
<path d="M500.309 267.766C500.301 267.781 500.12 267.75 499.806 267.703C499.634 267.672 499.445 267.64 499.233 267.593C499.013 267.554 498.746 267.554 498.463 267.523C497.34 267.436 495.699 267.538 494.168 268.369C493.39 268.761 492.738 269.287 492.212 269.82C491.678 270.345 491.262 270.894 490.956 271.372C490.327 272.329 490.131 273.019 490.1 273.011C490.084 273.003 490.123 272.83 490.225 272.525C490.335 272.219 490.516 271.788 490.822 271.294C491.121 270.792 491.521 270.228 492.071 269.679C492.605 269.13 493.272 268.581 494.073 268.181C495.652 267.319 497.348 267.248 498.487 267.374C498.77 267.413 499.037 267.429 499.264 267.484C499.476 267.538 499.665 267.585 499.838 267.625C500.144 267.703 500.317 267.758 500.309 267.766Z" fill="#263238"/>
<path d="M506.599 248.299C506.607 248.307 506.521 248.362 506.364 248.44C506.183 248.534 505.955 248.66 505.665 248.816C505.052 249.146 504.188 249.624 503.12 250.243C502.06 250.878 500.819 251.647 499.5 252.595C498.181 253.544 496.759 254.642 495.456 255.982C494.812 256.656 494.215 257.362 493.806 258.123C493.398 258.907 493.005 259.667 492.644 260.396C491.922 261.847 491.333 263.187 490.908 264.348C490.484 265.5 490.225 266.456 490.06 267.131C489.895 267.797 489.848 268.173 489.825 268.173C489.817 268.173 489.825 268.079 489.848 267.899C489.872 267.719 489.911 267.452 489.982 267.115C490.115 266.433 490.359 265.469 490.767 264.3C491.176 263.132 491.749 261.784 492.471 260.318C492.833 259.589 493.217 258.82 493.626 258.036C494.058 257.237 494.655 256.523 495.314 255.841C496.641 254.485 498.063 253.387 499.406 252.446C500.749 251.506 502.005 250.745 503.073 250.126C504.149 249.514 505.029 249.052 505.649 248.754C505.94 248.613 506.183 248.495 506.364 248.417C506.505 248.33 506.592 248.299 506.599 248.299Z" fill="#263238"/>
<path d="M489.063 267.209C489.048 267.209 489 267.021 488.938 266.684C488.867 266.3 488.773 265.814 488.663 265.241C488.427 264.026 488.058 262.348 487.485 260.561C486.912 258.765 486.205 257.197 485.702 256.068C485.459 255.535 485.254 255.088 485.09 254.736C484.948 254.422 484.878 254.242 484.885 254.234C484.901 254.226 484.995 254.399 485.168 254.696C485.341 254.994 485.569 255.449 485.843 255.998C486.393 257.111 487.124 258.671 487.697 260.49C488.278 262.301 488.624 263.987 488.828 265.218C488.922 265.829 488.993 266.331 489.032 266.676C489.063 267.013 489.079 267.201 489.063 267.209Z" fill="#263238"/>
<path d="M488.615 253.003C488.458 250.643 487.689 248.354 486.581 246.268C483.542 240.537 477.841 236.296 471.479 235.026C476.137 241.964 480.801 248.895 485.458 255.833L487.265 259.542C488.49 257.519 488.765 255.363 488.615 253.003Z" fill="#455A64"/>
<path d="M508.673 294.014H476.152V299.769H508.673V294.014Z" fill="#FF725E"/>
<path d="M478.579 298.624L481.351 316.468H502.932L506.239 298.624H478.579Z" fill="#FF725E"/>
<path d="M508.649 299.769C508.649 299.831 501.314 299.878 492.267 299.878C483.22 299.878 475.885 299.824 475.885 299.769C475.885 299.706 483.22 299.659 492.267 299.659C501.314 299.659 508.649 299.706 508.649 299.769Z" fill="#263238"/>
<path d="M144.813 313.99H82.9441C73.6928 313.99 66.1851 308.487 66.1851 301.689V301.203C66.1851 294.414 73.685 288.902 82.9441 288.902H144.813V313.99Z" fill="#FDB614"/>
<path d="M265.503 293.073H127.787V288.91H265.503C266.563 288.91 267.419 289.537 267.419 290.314V291.662C267.419 292.438 266.555 293.073 265.503 293.073Z" fill="#FDB614"/>
<path d="M265.503 313.99H127.787V309.827H265.503C266.563 309.827 267.419 310.455 267.419 311.231V312.579C267.419 313.355 266.555 313.99 265.503 313.99Z" fill="#FDB614"/>
<path d="M263.249 309.82H143.368C137.062 309.82 131.949 306.072 131.949 301.439C131.949 296.813 137.062 293.058 143.368 293.058H263.257C260.037 298.655 260.037 304.237 263.249 309.82Z" fill="#F5F5F5"/>
<g opacity="0.4">
<path d="M131.949 313.99H83.0933C73.7557 313.99 66.1851 308.432 66.1851 301.58C66.1851 294.579 73.9206 288.902 83.4624 288.902H133.245C120.868 294.406 121.795 307.577 131.949 313.99Z" fill="black"/>
</g>
<path d="M248.681 302.223C248.681 302.285 224.068 302.34 193.731 302.34C163.378 302.34 138.773 302.285 138.773 302.223C138.773 302.16 163.378 302.105 193.731 302.105C224.084 302.105 248.681 302.16 248.681 302.223Z" fill="#263238"/>
<path d="M259.997 305.947C259.997 306.009 235.385 306.064 205.048 306.064C174.695 306.064 150.09 306.009 150.09 305.947C150.09 305.884 174.695 305.829 205.048 305.829C235.385 305.829 259.997 305.884 259.997 305.947Z" fill="#263238"/>
<path d="M256.66 298.765C256.66 298.828 232.047 298.883 201.71 298.883C171.357 298.883 146.752 298.828 146.752 298.765C146.752 298.702 171.357 298.648 201.71 298.648C232.047 298.655 256.66 298.702 256.66 298.765Z" fill="#263238"/>
<path d="M125.925 312.226C125.925 312.289 114.412 312.344 100.206 312.344C85.9913 312.344 74.4783 312.289 74.4783 312.226C74.4783 312.164 85.9913 312.109 100.206 312.109C114.412 312.117 125.925 312.164 125.925 312.226Z" fill="#263238"/>
<path d="M125.925 290.988C125.925 291.051 114.412 291.105 100.206 291.105C85.9913 291.105 74.4783 291.051 74.4783 290.988C74.4783 290.925 85.9913 290.87 100.206 290.87C114.412 290.87 125.925 290.925 125.925 290.988Z" fill="#263238"/>
<path d="M121.276 289.843H67.1823C61.7792 289.843 57.3892 285.468 57.3892 280.067C57.3892 274.673 61.7713 270.29 67.1823 270.29H121.276V289.843Z" fill="#FF725E"/>
<path d="M218.885 274.9H107.438V270.298H218.885C219.992 270.298 220.896 271.192 220.896 272.305V272.909C220.888 274.006 219.992 274.9 218.885 274.9Z" fill="#FF725E"/>
<path d="M218.885 289.843H107.438V285.241H218.885C219.992 285.241 220.896 286.135 220.896 287.248V287.852C220.888 288.942 219.992 289.843 218.885 289.843Z" fill="#FF725E"/>
<path d="M217.503 285.233H115.999C113.14 285.233 110.823 282.92 110.823 280.067C110.823 277.213 113.14 274.9 115.999 274.9H217.503C214.896 278.342 214.896 281.792 217.503 285.233Z" fill="#F5F5F5"/>
<g opacity="0.3">
<path d="M110.823 289.843H67.1037C61.7478 289.843 57.3892 285.508 57.3892 280.145C57.3892 274.704 61.8027 270.29 67.2608 270.29H111.883C101.823 274.587 102.577 284.849 110.823 289.843Z" fill="black"/>
</g>
<path d="M205.676 279.251C205.676 279.338 185.681 279.408 161.03 279.408C136.37 279.408 116.375 279.338 116.375 279.251C116.375 279.165 136.37 279.095 161.03 279.095C185.681 279.095 205.676 279.165 205.676 279.251Z" fill="#263238"/>
<path d="M214.864 282.035C214.864 282.121 194.87 282.191 170.218 282.191C145.559 282.191 125.564 282.121 125.564 282.035C125.564 281.948 145.559 281.878 170.218 281.878C194.87 281.878 214.864 281.948 214.864 282.035Z" fill="#263238"/>
<path d="M105.939 287.891C105.939 287.977 96.5773 288.048 85.0408 288.048C73.5042 288.048 64.1431 287.977 64.1431 287.891C64.1431 287.805 73.5042 287.734 85.0408 287.734C96.5773 287.734 105.939 287.805 105.939 287.891Z" fill="#263238"/>
<path d="M105.939 272.603C105.939 272.689 96.5773 272.76 85.0408 272.76C73.5042 272.76 64.1431 272.689 64.1431 272.603C64.1431 272.517 73.5042 272.446 85.0408 272.446C96.5773 272.446 105.939 272.509 105.939 272.603Z" fill="#263238"/>
<path d="M219.561 270.298C219.561 270.384 185.234 270.455 142.888 270.455C100.535 270.455 66.2085 270.384 66.2085 270.298C66.2085 270.212 100.528 270.141 142.888 270.141C185.226 270.141 219.561 270.212 219.561 270.298Z" fill="#263238"/>
<path d="M150.137 173.451C152.595 173.451 154.708 174.344 154.708 177.065C154.708 180.53 151.354 185.054 143.792 185.054C139.849 185.054 135.938 183.854 135.938 181.479C135.938 179.574 138.357 177.849 140.839 176.72H140.705C139.331 176.72 136.802 176.359 136.802 173.756C136.802 172.079 137.964 170.503 141.679 168.833C139.488 167.978 138.059 166.191 138.059 163.282C138.059 159.001 141.161 157.136 145.26 157.136C146.25 157.136 147.184 157.253 148.025 157.481C148.292 156.014 148.802 154.799 149.399 154.015C150.027 153.231 150.922 152.722 152.069 152.722C153.42 152.722 154.127 153.615 154.127 154.76C154.127 155.803 153.341 156.626 152.257 156.626C150.852 156.626 150.428 155.693 150.184 154.172C149.799 154.517 149.462 155.144 149.14 156.077C149.006 156.516 148.833 157.049 148.739 157.692C151.009 158.531 152.493 160.334 152.493 163.282C152.493 167.563 149.367 169.444 145.276 169.444C144.231 169.444 143.258 169.327 142.402 169.084C140.65 170.017 139.127 170.965 139.127 172.165C139.127 173.019 139.661 173.458 140.996 173.458L150.137 173.451ZM152.022 178.892C152.022 177.465 151.433 176.72 149.045 176.72H141.789C140.077 177.598 139.142 179.213 139.142 180.656C139.142 183.298 142.229 184.38 144.836 184.38C148.119 184.387 152.022 182.639 152.022 178.892ZM141.71 163.274C141.71 167.437 143.085 168.731 145.252 168.731C147.443 168.731 148.818 167.437 148.818 163.274C148.818 159.111 147.443 157.818 145.252 157.818C143.085 157.818 141.71 159.111 141.71 163.274Z" fill="#263238"/>
<path d="M408.661 136.626C408.661 139.135 407.507 141.746 404.679 141.746C403.768 141.746 403.03 141.346 402.645 140.805V143.024C402.645 144.011 403.274 144.278 404.318 144.278V144.639C403.808 144.623 402.826 144.56 401.813 144.56C401.083 144.56 400.305 144.623 399.936 144.639V144.278C400.768 144.278 401.083 144.035 401.083 143.204V134.462C401.083 133.42 400.768 132.926 399.755 132.926V132.565C400.117 132.596 400.486 132.612 400.831 132.612C401.507 132.612 402.135 132.541 402.638 132.377V134.204C403.164 133.004 404.193 132.322 405.418 132.322C407.255 132.33 408.661 133.835 408.661 136.626ZM406.973 136.869C406.973 134.117 406.274 132.847 404.954 132.847C403.941 132.847 403.022 133.576 402.645 135.042V140.233C402.967 140.875 403.572 141.354 404.483 141.354C406.415 141.346 406.973 139.331 406.973 136.869Z" fill="#263238"/>
<path d="M117.585 207.727C120.216 208.072 120.978 209.373 120.978 210.714C120.978 212.604 119.478 213.929 116.988 213.929C116.493 213.929 115.496 213.881 114.13 213.881C113.352 213.881 112.528 213.897 112.072 213.929V213.599C113.203 213.552 113.415 213.38 113.415 212.172V203.94C113.415 202.733 113.195 202.561 112.072 202.513V202.184C112.535 202.216 113.368 202.231 114.098 202.231C115.143 202.231 116.211 202.2 116.603 202.2C118.928 202.2 120.106 203.274 120.106 204.811C120.106 205.987 119.438 207.123 117.585 207.696V207.727ZM114.962 203.94V207.688H116.077C118.033 207.688 118.52 206.426 118.52 204.983C118.52 203.352 117.852 202.513 116.195 202.513C115.174 202.521 114.962 202.804 114.962 203.94ZM119.313 210.644C119.313 208.958 118.457 207.978 116.352 207.978H114.954V212.172C114.954 213.333 115.174 213.552 116.203 213.552C118.386 213.552 119.313 212.502 119.313 210.644Z" fill="#263238"/>
<path d="M324.214 144.999C324.795 143.51 325.91 143.016 327.033 143.016C327.882 143.016 328.416 143.243 328.793 143.635C329.209 144.09 329.374 144.678 329.374 145.815V150.244C329.374 151.169 329.719 151.436 330.638 151.436V151.781C330.245 151.765 329.374 151.718 328.643 151.718C327.913 151.718 327.128 151.765 326.774 151.781V151.436C327.575 151.436 327.874 151.169 327.874 150.244V145.446C327.874 144.419 327.717 143.533 326.531 143.533C325.164 143.533 324.206 144.78 324.206 146.536V150.236C324.206 151.161 324.505 151.428 325.298 151.428V151.773C324.952 151.757 324.167 151.71 323.437 151.71C322.706 151.71 321.819 151.757 321.442 151.773V151.428C322.361 151.428 322.706 151.161 322.706 150.236V140.773C322.706 139.778 322.408 139.315 321.442 139.315V138.97C321.787 139.002 322.141 139.017 322.471 139.017C323.123 139.017 323.719 138.955 324.198 138.782V144.999H324.214Z" fill="#263238"/>
<path d="M271.126 89.445C273.584 89.445 275.696 90.3387 275.696 93.0592C275.696 96.5245 272.343 101.048 264.78 101.048C260.838 101.048 256.927 99.8486 256.927 97.4731C256.927 95.568 259.346 93.8432 261.827 92.7143H261.694C260.319 92.7143 257.791 92.3536 257.791 89.7507C257.791 88.073 258.953 86.4971 262.668 84.8272C260.476 83.9727 259.047 82.1851 259.047 79.2765C259.047 74.9959 262.149 73.1299 266.249 73.1299C267.238 73.1299 268.173 73.2475 269.013 73.4749C269.28 72.0088 269.791 70.7936 270.387 70.0096C271.016 69.2256 271.911 68.716 273.058 68.716C274.408 68.716 275.115 69.6098 275.115 70.7544C275.115 71.7971 274.33 72.6203 273.246 72.6203C271.84 72.6203 271.416 71.6874 271.173 70.1664C270.788 70.5114 270.45 71.1386 270.128 72.0715C269.995 72.5106 269.822 73.0437 269.728 73.6866C271.997 74.5255 273.482 76.3287 273.482 79.2765C273.482 83.5571 270.356 85.4387 266.264 85.4387C265.22 85.4387 264.246 85.3211 263.39 85.0781C261.639 86.0111 260.115 86.9597 260.115 88.1592C260.115 89.0138 260.649 89.4528 261.984 89.4528L271.126 89.445ZM273.018 94.8859C273.018 93.4591 272.429 92.7143 270.042 92.7143H262.785C261.073 93.5923 260.139 95.2074 260.139 96.6499C260.139 99.292 263.225 100.374 265.832 100.374C269.107 100.382 273.018 98.6335 273.018 94.8859ZM262.707 79.2687C262.707 83.4317 264.081 84.7253 266.249 84.7253C268.44 84.7253 269.814 83.4317 269.814 79.2687C269.814 75.1056 268.44 73.812 266.249 73.812C264.081 73.812 262.707 75.1056 262.707 79.2687Z" fill="#263238"/>
<path d="M228.396 80.5779C227.602 80.6093 227.453 80.7347 227.453 81.5815V87.3517C227.453 88.1984 227.61 88.316 228.396 88.316H229.252C230.712 88.316 230.995 87.7594 231.168 86.1365H231.435C231.411 86.3795 231.403 86.7167 231.403 87.093C231.403 87.3831 231.427 87.9946 231.482 88.5826C230.689 88.5512 229.589 88.5512 228.812 88.5512C228.113 88.5512 226.574 88.5512 225.427 88.5826V88.3474C226.22 88.316 226.369 88.1906 226.369 87.3439V81.5736C226.369 80.7269 226.212 80.6093 225.427 80.5701V80.3349C225.749 80.3584 226.314 80.3663 226.919 80.3663C227.453 80.3663 228.042 80.3584 228.396 80.3349V80.5779Z" fill="#263238"/>
<path d="M88.3 136.046L159.6 137.826C159.6 137.826 136.441 81.4638 102.64 99.7075C102.64 99.6997 88.7006 107.297 88.3 136.046Z" fill="white"/>
<path d="M113.399 96.0149C113.399 96.0149 150.498 94.0784 164.391 163.525C176.493 224.05 186.302 313.81 246.05 314.978C305.806 316.154 358.784 314.978 358.784 314.978H382.863C323.107 313.802 313.549 223.987 301.204 163.525C288.858 103.063 250.212 96.0149 250.212 96.0149H113.399Z" fill="#273D4A"/>
<path d="M113.399 96.0149C113.399 96.0149 114.208 95.9992 115.787 95.9914C117.373 95.9835 119.721 95.9835 122.808 95.9678C128.988 95.96 138.114 95.9443 149.902 95.9287C173.477 95.913 207.679 95.8895 250.212 95.8659H250.228H250.236C254.61 96.8695 258.804 98.7667 262.825 101.103C266.83 103.463 270.654 106.317 274.173 109.633C281.241 116.242 287.131 124.56 291.623 133.882C293.877 138.539 295.809 143.447 297.466 148.519C299.131 153.592 300.387 158.876 301.534 164.246C303.725 175.011 305.727 186.12 307.934 197.488C310.141 208.848 312.528 220.467 315.489 232.211C318.465 243.948 321.984 255.841 326.861 267.46C329.311 273.262 332.107 278.985 335.437 284.457C338.782 289.914 342.669 295.135 347.311 299.69C351.944 304.245 357.379 308.103 363.457 310.698C369.52 313.316 376.172 314.625 382.863 314.767L382.855 315.174C377.899 315.174 372.881 315.174 367.816 315.174C365.279 315.174 362.727 315.174 360.167 315.174C357.606 315.174 355.031 315.26 352.447 315.292C342.104 315.464 331.588 315.574 320.994 315.637C299.46 315.77 278.256 315.676 257.492 315.37C254.893 315.323 252.309 315.284 249.725 315.237C247.149 315.19 244.558 315.19 241.99 314.939C239.422 314.727 236.877 314.296 234.388 313.7C231.89 313.12 229.456 312.313 227.1 311.34C224.736 310.384 222.466 309.224 220.307 307.899C218.139 306.589 216.074 305.131 214.134 303.524C212.186 301.932 210.341 300.223 208.629 298.404C206.901 296.601 205.275 294.704 203.768 292.736C197.689 284.873 193.173 276.1 189.435 267.24C185.728 258.35 182.799 249.303 180.31 240.318C175.346 222.325 171.977 204.583 168.781 187.563C165.498 170.581 163.095 154.031 157.48 139.213C154.723 131.82 151.425 124.811 147.231 118.602C143.108 112.369 138.074 106.944 132.294 102.914C129.404 100.907 126.326 99.2528 123.13 98.0847C121.535 97.4888 119.91 97.0106 118.268 96.6735C116.635 96.3442 114.97 96.1011 113.344 96.1482C110.077 96.4775 106.912 97.3712 104.109 98.853C101.305 100.327 98.8863 102.357 96.923 104.686C94.9518 107.007 93.4439 109.625 92.2738 112.299C91.1036 114.98 90.2476 117.724 89.6115 120.444C88.9754 123.173 88.5749 125.885 88.3157 128.535C88.0644 131.193 87.9701 133.804 88.0565 136.328L87.9544 136.226C99.0669 136.242 108.946 136.469 117.514 136.689C126.082 136.924 133.331 137.128 139.205 137.292C150.899 137.583 156.734 137.732 157.119 137.739C157.119 137.739 156.734 137.739 155.972 137.732C155.203 137.724 154.064 137.708 152.564 137.684C149.548 137.622 145.072 137.528 139.205 137.402C133.339 137.253 126.082 137.065 117.514 136.846C108.946 136.642 99.0669 136.43 87.9623 136.43H87.8602V136.328C87.766 133.78 87.8602 131.169 88.1036 128.504C88.355 125.838 88.7555 123.118 89.3916 120.382C90.0277 117.645 90.8759 114.886 92.0539 112.189C93.224 109.492 94.7397 106.858 96.7266 104.506C98.6978 102.154 101.148 100.092 103.983 98.6021C106.818 97.1046 110.007 96.1952 113.313 95.8581C114.993 95.811 116.658 96.0541 118.315 96.3834C119.972 96.7205 121.606 97.2066 123.216 97.8024C126.444 98.9784 129.546 100.64 132.451 102.663C138.271 106.716 143.336 112.157 147.483 118.414C151.7 124.639 155.014 131.671 157.778 139.08C160.535 146.504 162.671 154.36 164.336 162.49C166.001 170.62 167.517 178.97 169.119 187.476C172.323 204.489 175.692 222.223 180.663 240.192C183.153 249.169 186.082 258.193 189.781 267.068C193.511 275.904 198.019 284.653 204.074 292.47C205.574 294.43 207.192 296.311 208.911 298.107C210.616 299.91 212.445 301.611 214.385 303.187C216.309 304.778 218.359 306.229 220.511 307.53C222.655 308.84 224.909 309.992 227.249 310.941C229.581 311.905 232 312.712 234.482 313.285C236.956 313.881 239.477 314.304 242.029 314.516C244.573 314.767 247.149 314.767 249.733 314.814C252.317 314.861 254.901 314.9 257.5 314.947C278.264 315.253 299.46 315.339 320.994 315.213C331.588 315.151 342.104 315.041 352.447 314.868C355.031 314.837 357.606 314.751 360.167 314.751C362.727 314.751 365.279 314.751 367.816 314.751C372.889 314.751 377.907 314.751 382.863 314.751L382.855 315.159C376.117 315.025 369.41 313.7 363.3 311.058C357.175 308.44 351.693 304.551 347.028 299.965C342.355 295.378 338.452 290.125 335.091 284.653C331.745 279.157 328.942 273.418 326.492 267.601C321.607 255.951 318.081 244.042 315.112 232.298C312.151 220.538 309.772 208.911 307.573 197.551C305.374 186.183 303.364 175.073 301.188 164.309C300.049 158.947 298.801 153.678 297.144 148.613C295.494 143.549 293.57 138.657 291.324 134.015C286.848 124.725 280.989 116.43 273.961 109.852C270.466 106.544 266.657 103.706 262.675 101.354C258.686 99.0333 254.492 97.136 250.189 96.1403H250.212C207.679 96.1168 173.477 96.0933 149.902 96.0776C138.122 96.0619 128.996 96.0463 122.808 96.0384C119.721 96.0306 117.365 96.0227 115.787 96.0149C114.208 96.0227 113.399 96.0149 113.399 96.0149Z" fill="#5B5B5B"/>
<path d="M292.338 287.358C292.463 295.237 288.976 303.101 283.063 308.306C278.798 312.062 273.317 314.382 267.662 314.97L413.412 315.935C435.245 315.935 436.383 287.358 436.383 287.358H292.338Z" fill="white"/>
<path d="M415.226 315.927C415.226 315.927 415.462 315.888 415.91 315.841C416.365 315.786 417.041 315.747 417.912 315.543C419.64 315.198 422.247 314.484 424.988 312.524C427.753 310.604 430.47 307.334 432.441 302.991C434.412 298.655 435.818 293.316 436.218 287.35L436.375 287.507C416.891 287.538 391.038 287.577 362.75 287.625C335.971 287.632 311.374 287.64 292.369 287.648L292.526 287.483C292.581 290.753 291.937 293.842 290.955 296.609C289.958 299.377 288.615 301.838 287.099 303.955C284.076 308.212 280.314 310.941 277.031 312.564C273.733 314.21 270.89 314.829 268.974 315.127C267.05 315.409 266.021 315.386 266.021 315.386C266.021 315.386 266.272 315.355 266.775 315.308C267.27 315.276 268.008 315.182 268.966 315.033C270.867 314.712 273.686 314.061 276.961 312.407C280.212 310.768 283.919 308.048 286.895 303.814C288.379 301.713 289.699 299.267 290.68 296.523C291.639 293.779 292.267 290.721 292.204 287.499V287.334H292.369C311.382 287.303 335.978 287.264 362.75 287.225C391.038 287.217 416.891 287.209 436.375 287.209H436.54L436.533 287.366C436.344 290.384 435.849 293.214 435.197 295.857C434.53 298.491 433.697 300.929 432.677 303.101C430.674 307.468 427.91 310.753 425.098 312.665C422.31 314.625 419.671 315.315 417.936 315.637C417.056 315.825 416.373 315.848 415.918 315.888C415.462 315.919 415.226 315.927 415.226 315.927Z" fill="white"/>
<path d="M259.479 120.405C259.479 120.515 237.725 120.609 210.89 120.609C184.048 120.609 162.294 120.515 162.294 120.405C162.294 120.295 184.048 120.201 210.89 120.201C237.717 120.201 259.479 120.295 259.479 120.405Z" fill="white"/>
<path d="M259.479 130.174C259.479 130.284 238.605 130.378 212.87 130.378C187.118 130.378 166.252 130.284 166.252 130.174C166.252 130.064 187.118 129.97 212.87 129.97C238.605 129.97 259.479 130.064 259.479 130.174Z" fill="white"/>
<path d="M257.084 138.915C257.084 139.025 237.725 139.119 213.843 139.119C189.953 139.119 170.603 139.025 170.603 138.915C170.603 138.806 189.961 138.712 213.843 138.712C237.717 138.712 257.084 138.806 257.084 138.915Z" fill="white"/>
<path d="M318.203 54.4871C329.949 53.2668 338.481 42.7712 337.258 31.0445C336.036 19.3178 325.523 10.8007 313.776 12.021C302.029 13.2413 293.498 23.7369 294.72 35.4636C295.943 47.1903 306.456 55.7074 318.203 54.4871Z" fill="white"/>
<path d="M323.319 53.3339C323.319 53.3418 323.209 53.381 322.997 53.4515C322.761 53.5299 322.439 53.6319 322.031 53.773C321.819 53.8435 321.576 53.9219 321.316 54.0003C321.049 54.0709 320.751 54.1258 320.429 54.1963C319.785 54.3296 319.047 54.5099 318.199 54.5648C316.51 54.8 314.398 54.7608 312.01 54.3296C309.631 53.8906 306.968 52.9733 304.385 51.3269C301.824 49.6805 299.296 47.3363 297.474 44.2239C295.683 41.1271 294.411 37.3482 294.458 33.2871C294.419 32.2757 294.552 31.2565 294.654 30.2216C294.733 29.712 294.851 29.2024 294.945 28.685C295.031 28.1675 295.18 27.6658 295.338 27.1562C295.605 26.1291 296.044 25.1491 296.453 24.1456C296.955 23.1891 297.434 22.2013 298.078 21.3075C299.311 19.4887 300.796 17.7639 302.61 16.3762C304.408 14.9728 306.442 13.836 308.633 13.005C310.848 12.2367 313.141 11.8055 315.419 11.7271C317.704 11.6251 319.95 12.0015 322.062 12.5973C323.13 12.8717 324.136 13.3264 325.133 13.7341C326.091 14.2437 327.057 14.7063 327.921 15.3256C328.369 15.6157 328.808 15.8979 329.209 16.2429C329.617 16.5722 330.034 16.8858 330.418 17.2307C331.157 17.9599 331.918 18.6498 332.539 19.4573C335.185 22.5384 336.646 26.2546 337.266 29.7747C337.879 33.3263 337.447 36.7445 336.544 39.6531C335.625 42.5696 334.18 44.9843 332.633 46.8424C331.078 48.7005 329.484 50.0803 328.039 50.9898C327.348 51.4915 326.672 51.8287 326.091 52.1423C325.801 52.2912 325.541 52.448 325.29 52.5578C325.039 52.6597 324.803 52.7538 324.591 52.84C324.191 52.9968 323.877 53.1222 323.641 53.2163C323.429 53.3026 323.319 53.3418 323.319 53.3339C323.319 53.3261 323.421 53.279 323.633 53.1771C323.861 53.0752 324.167 52.9419 324.56 52.7616C324.764 52.6754 324.992 52.5735 325.243 52.4637C325.486 52.3461 325.746 52.1893 326.036 52.0325C326.609 51.7189 327.277 51.3661 327.952 50.8565C329.374 49.9392 330.937 48.5437 332.46 46.7013C333.968 44.8432 335.382 42.452 336.269 39.5669C337.141 36.6975 337.549 33.3263 336.937 29.8296C336.308 26.3643 334.871 22.7187 332.256 19.7003C331.643 18.9085 330.897 18.2343 330.167 17.5208C329.782 17.1837 329.374 16.8779 328.973 16.5487C328.581 16.2115 328.149 15.9293 327.709 15.6471C326.861 15.0434 325.903 14.5887 324.968 14.0869C323.986 13.6871 323.005 13.248 321.952 12.9736C319.879 12.3856 317.672 12.0171 315.434 12.1269C313.196 12.2053 310.95 12.6287 308.775 13.3813C306.623 14.1967 304.628 15.3099 302.869 16.6898C301.086 18.0461 299.633 19.7395 298.416 21.5192C297.788 22.3973 297.317 23.3695 296.814 24.3024C296.413 25.2824 295.974 26.2467 295.714 27.2581C295.557 27.752 295.408 28.2459 295.322 28.7555C295.228 29.2573 295.11 29.7591 295.031 30.2608C294.929 31.2722 294.796 32.2757 294.835 33.2714C294.78 37.2619 296.013 40.9781 297.764 44.0357C299.539 47.109 302.021 49.4296 304.534 51.0682C307.07 52.7067 309.693 53.6397 312.042 54.0944C314.398 54.5335 316.494 54.5962 318.175 54.3923C319.023 54.3453 319.761 54.1885 320.398 54.0631C320.72 54.0003 321.018 53.9533 321.285 53.8906C321.544 53.8122 321.788 53.7416 322 53.6789C322.416 53.5613 322.738 53.4672 322.981 53.3967C323.201 53.3496 323.319 53.3261 323.319 53.3339Z" fill="#263238"/>
<path d="M310.918 33.6477C310.918 34.9962 309.819 36.0938 308.468 36.0938C307.117 36.0938 306.018 34.9962 306.018 33.6477C306.018 32.2992 307.117 31.2016 308.468 31.2016C309.819 31.2016 310.918 32.2992 310.918 33.6477Z" fill="#273D4A"/>
<path d="M318.465 33.6477C318.465 34.9962 317.366 36.0938 316.015 36.0938C314.664 36.0938 313.565 34.9962 313.565 33.6477C313.565 32.2992 314.664 31.2016 316.015 31.2016C317.366 31.2016 318.465 32.2992 318.465 33.6477Z" fill="#273D4A"/>
<path d="M326.02 33.6477C326.02 34.9962 324.921 36.0938 323.57 36.0938C322.219 36.0938 321.12 34.9962 321.12 33.6477C321.12 32.2992 322.219 31.2016 323.57 31.2016C324.921 31.2016 326.02 32.2992 326.02 33.6477Z" fill="#273D4A"/>
<path d="M341.405 49.5942C342.901 49.5942 344.114 48.3833 344.114 46.8895C344.114 45.3956 342.901 44.1846 341.405 44.1846C339.909 44.1846 338.696 45.3956 338.696 46.8895C338.696 48.3833 339.909 49.5942 341.405 49.5942Z" fill="white"/>
<path d="M344.122 46.8895C344.083 46.8895 344.083 46.6464 343.957 46.2466C343.84 45.8546 343.557 45.2822 342.96 44.851C342.387 44.4198 341.444 44.1846 340.549 44.5218C339.654 44.8354 338.892 45.784 338.9 46.8895C338.892 47.9949 339.654 48.9435 340.549 49.2571C341.452 49.5942 342.387 49.359 342.96 48.9278C343.557 48.4966 343.84 47.9243 343.957 47.5323C344.083 47.1325 344.083 46.8895 344.122 46.8895C344.138 46.8895 344.193 47.1325 344.114 47.5715C344.036 48.0027 343.777 48.6456 343.141 49.1552C342.52 49.6648 341.468 49.9784 340.423 49.6099C339.387 49.2728 338.484 48.1752 338.491 46.8895C338.476 45.6037 339.387 44.5061 340.423 44.169C341.468 43.8005 342.52 44.1062 343.141 44.6237C343.777 45.1333 344.036 45.784 344.114 46.2074C344.193 46.6464 344.138 46.8973 344.122 46.8895Z" fill="#263238"/>
<path d="M485.576 4.1301C484.697 1.8565 472.548 -3.10622 448.894 4.9141C447.244 9.8141 445.603 14.7141 443.962 19.6063C443.498 15.208 443.773 10.7314 444.739 6.41153C444.653 6.44289 444.574 6.47426 444.496 6.50562C417.936 16.7368 370.187 41.8562 356.452 53.4751C348.716 60.0136 342.418 68.6376 338.389 74.9253C335.169 79.9507 330.206 87.9554 331.125 93.8511L330.999 96.2344L337.447 102.789C337.447 102.789 362.012 109.884 368.201 109.476C374.381 109.068 420.323 80.2957 429.763 71.9147L424.847 69.453L433.155 69.4138C433.155 69.4138 444.189 60.7427 455.537 51.0839C450.959 47.0149 446.388 42.9459 441.81 38.877C448.171 40.9154 454.257 43.7613 459.912 47.3128C467.404 40.7978 474.417 34.2906 477.778 30.057C486.841 18.6733 486.511 6.53698 485.576 4.1301Z" fill="#FF725E"/>
<path d="M436.414 13.985C436.438 14.0007 436.265 14.4083 435.92 15.1453C435.55 15.945 435.056 16.9955 434.467 18.2578C433.249 20.8842 431.632 24.5455 429.998 28.6536C428.373 32.7618 427.053 36.5485 426.142 39.2925C425.71 40.6175 425.349 41.7151 425.074 42.5539C424.823 43.3223 424.666 43.7456 424.642 43.7378C424.619 43.7299 424.713 43.2909 424.925 42.5069C425.129 41.7229 425.451 40.5939 425.875 39.2063C426.715 36.4309 427.996 32.6207 429.629 28.5047C431.263 24.3887 432.927 20.7352 434.215 18.1323C434.859 16.8309 435.393 15.7882 435.786 15.0747C436.163 14.3613 436.383 13.9693 436.414 13.985Z" fill="#263238"/>
<path d="M424.721 30.8488C424.823 30.888 423.912 33.3498 422.687 36.3368C421.462 39.3239 420.378 41.7072 420.276 41.668C420.174 41.6288 421.085 39.1671 422.31 36.18C423.535 33.193 424.611 30.8018 424.721 30.8488Z" fill="#263238"/>
<path d="M408.433 50.292C408.449 50.2685 408.841 50.4567 409.548 50.8251C410.247 51.1936 411.268 51.7111 412.532 52.3383C415.069 53.5848 418.627 55.192 422.687 56.6503C426.747 58.1085 430.517 59.1355 433.265 59.7863C434.64 60.1155 435.755 60.3664 436.532 60.5232C437.302 60.6879 437.734 60.7976 437.726 60.8211C437.718 60.8525 437.286 60.7976 436.501 60.68C435.715 60.5624 434.585 60.3586 433.202 60.0685C430.43 59.4883 426.629 58.4927 422.553 57.0344C418.477 55.5683 414.92 53.9141 412.407 52.597C411.15 51.9384 410.153 51.3818 409.47 50.9663C408.794 50.5507 408.425 50.3155 408.433 50.292Z" fill="#263238"/>
<path d="M464.867 34.4082C464.867 34.4395 464.577 34.4317 464.058 34.3925C463.54 34.3533 462.794 34.2749 461.875 34.1651C460.037 33.9299 457.509 33.5144 454.752 32.8872C451.996 32.2522 449.538 31.5231 447.778 30.9351C446.899 30.6371 446.192 30.3863 445.713 30.1903C445.234 30.0021 444.967 29.8845 444.983 29.8531C445.006 29.7983 446.098 30.1354 447.865 30.6528C449.64 31.1703 452.098 31.8523 454.839 32.4795C457.587 33.1067 460.092 33.5693 461.914 33.8672C463.744 34.173 464.875 34.3455 464.867 34.4082Z" fill="#263238"/>
<path d="M461.294 29.3827C461.294 29.4376 460.579 29.5239 459.417 29.5552C458.255 29.5866 456.645 29.5552 454.885 29.3749C453.118 29.1946 451.54 28.9045 450.409 28.6458C449.278 28.3792 448.595 28.1597 448.611 28.1048C448.626 28.0499 449.333 28.1754 450.472 28.3635C451.611 28.5517 453.181 28.7947 454.933 28.9751C456.684 29.1475 458.27 29.2338 459.425 29.273C460.579 29.3043 461.294 29.32 461.294 29.3827Z" fill="#263238"/>
<path d="M345.905 84.1765C363.85 73.8434 381.826 61.6757 399.692 51.3426C417.174 41.229 462.66 16.1096 481.516 5.71377C481.807 5.55697 482.16 5.65105 482.341 5.92545C482.521 6.20769 482.443 6.59185 482.168 6.78001C473.655 12.5738 465.04 18.148 456.433 23.7536C426.637 43.4634 380.899 72.4949 351.7 92.9573C338.915 101.785 321.622 113.874 308.232 121.785L301.313 111.914C315.253 103.894 331.824 92.4085 345.905 84.1765Z" fill="#263238"/>
<path d="M345.905 84.1765C345.905 84.1765 345.646 84.3411 345.127 84.6547C344.601 84.9683 343.839 85.4309 342.834 86.0424C340.816 87.2733 337.847 89.1078 334.031 91.5226C330.229 93.9608 325.565 96.9557 320.13 100.444C314.688 103.925 308.476 107.916 301.376 112.032L301.416 111.844C303.583 114.933 305.916 118.249 308.342 121.707L308.146 121.667C324.842 111.726 343.58 98.2258 364.698 83.7923C385.878 69.4295 409.485 54.165 434.192 38.0851C446.694 29.9707 458.828 21.9426 470.561 14.2045C473.49 12.268 476.404 10.3551 479.278 8.45778C480 7.97954 480.715 7.50914 481.43 7.03874L481.964 6.68593C482.144 6.58401 482.199 6.47426 482.231 6.31746C482.278 6.0117 481.925 5.74513 481.65 5.87057C480.165 6.69377 478.689 7.51697 477.212 8.34017C471.307 11.633 465.527 14.8552 459.888 17.9912C437.325 30.5587 417.001 41.8719 399.936 51.3739C391.478 56.2583 383.986 60.9309 377.397 65.0312C370.816 69.1394 365.153 72.6831 360.496 75.5368C355.839 78.3906 352.195 80.5544 349.706 82.0048C348.465 82.7182 347.515 83.2671 346.871 83.6355C346.235 83.9962 345.905 84.1765 345.905 84.1765C345.905 84.1765 346.227 83.9726 346.855 83.5963C347.499 83.22 348.434 82.6634 349.667 81.9342C352.132 80.4603 355.769 78.273 360.41 75.4035C365.043 72.5027 370.706 68.9591 377.279 64.8352C383.852 60.7192 391.344 56.0231 399.794 51.1231C416.852 41.5975 437.161 30.253 459.707 17.6619C465.346 14.5181 471.126 11.288 477.032 7.99522C478.516 7.17202 480.008 6.34097 481.508 5.50993C481.767 5.40017 482.089 5.44721 482.309 5.61969C482.537 5.78433 482.663 6.07442 482.631 6.35666C482.616 6.63106 482.396 6.90546 482.199 7.00738L481.665 7.36017C480.951 7.83057 480.228 8.30882 479.514 8.77922C476.631 10.6765 473.726 12.5973 470.796 14.5338C459.063 22.2719 446.93 30.3079 434.428 38.4223C409.721 54.5099 386.114 69.7587 364.926 84.0981C343.792 98.5158 325.038 111.993 308.303 121.918L308.185 121.989L308.107 121.879C305.688 118.414 303.363 115.097 301.204 112.001L301.117 111.883L301.243 111.812C308.342 107.72 314.562 103.737 320.02 100.28C325.47 96.8146 330.143 93.8432 333.96 91.4128C337.784 89.0138 340.769 87.1949 342.795 85.9875C343.808 85.3917 344.585 84.937 345.112 84.6312C345.63 84.3176 345.905 84.1765 345.905 84.1765Z" fill="#455A64"/>
<path d="M386.059 61.8482C387.606 51.6013 389.844 41.4563 392.742 31.4995L386.059 61.8482Z" fill="#263238"/>
<path d="M386.554 40.641C386.577 40.6488 386.53 40.9389 386.42 41.4642C386.287 42.0757 386.13 42.8127 385.949 43.6751C385.556 45.541 385.046 48.1282 384.622 51.0055C384.198 53.8827 383.923 56.5091 383.758 58.4064C383.679 59.2845 383.617 60.0371 383.562 60.6565C383.515 61.1896 383.475 61.4797 383.444 61.4797C383.412 61.4797 383.405 61.1818 383.397 60.6487C383.397 60.1155 383.412 59.3394 383.46 58.3829C383.554 56.4699 383.774 53.8279 384.206 50.9349C384.638 48.0419 385.187 45.4547 385.658 43.5967C385.894 42.6715 386.098 41.9189 386.255 41.4093C386.428 40.9075 386.53 40.6331 386.554 40.641Z" fill="#263238"/>
<path d="M280.864 121.95C280.864 121.95 291.073 119.104 295.84 116.956C299.287 115.403 300.897 110.503 300.897 110.503L303.489 110.268L310.989 120.123L309.575 122.71C309.575 122.71 304.424 121.691 301.031 124.592C297.63 127.492 291.583 136.164 291.583 136.164C285.411 135.576 279.45 136.422 273.961 139.127L273.513 138.445L286.07 130.166L286.353 130.464C287.131 131.099 288.159 131.389 289.157 131.154C290.822 130.762 291.756 129.084 291.254 127.398C290.751 125.713 288.992 124.662 287.327 125.054C285.662 125.446 284.727 127.124 285.23 128.81L272.924 137.583L272.351 136.72C272.351 136.728 280.856 128.857 280.864 121.95Z" fill="#E0E0E0"/>
<path d="M280.864 121.95C280.864 121.95 280.864 122.059 280.856 122.255C280.848 122.467 280.832 122.757 280.809 123.133C280.769 123.518 280.652 123.996 280.549 124.56C280.369 125.101 280.227 125.76 279.913 126.442C278.798 129.225 276.371 132.973 272.437 136.822L272.46 136.657C272.633 136.916 272.837 137.214 273.042 137.52L272.853 137.488C276.395 134.948 280.542 131.977 285.136 128.684L285.073 128.872C284.877 128.198 284.869 127.445 285.136 126.763C285.395 126.089 285.905 125.485 286.581 125.148C287.932 124.435 289.738 124.874 290.719 126.081C291.222 126.677 291.544 127.438 291.56 128.237C291.583 129.037 291.301 129.852 290.735 130.456C290.178 131.06 289.361 131.42 288.528 131.436C287.696 131.46 286.863 131.154 286.22 130.621L286.212 130.613L286.204 130.605C286.117 130.511 286.015 130.409 285.921 130.307L286.165 130.331C282.175 132.965 277.966 135.74 273.615 138.617L273.67 138.335C273.811 138.547 273.968 138.782 274.118 139.017L273.858 138.947C276.262 137.763 278.971 136.846 281.798 136.328C285.081 135.724 288.395 135.654 291.583 135.96L291.395 136.046C293.877 132.565 296.366 129.217 299.068 126.238C299.751 125.501 300.442 124.78 301.251 124.168C302.06 123.565 302.971 123.126 303.905 122.843C305.79 122.287 307.738 122.24 309.591 122.53L309.395 122.624C309.882 121.738 310.353 120.883 310.816 120.037L310.832 120.233C308.138 116.681 305.641 113.388 303.348 110.362L303.489 110.425C302.57 110.503 301.722 110.582 300.897 110.652L301.023 110.55C300.371 112.322 299.476 113.906 298.345 115.184C297.78 115.819 297.136 116.368 296.445 116.775C296.091 116.971 295.73 117.144 295.377 117.285C295.023 117.442 294.67 117.575 294.324 117.716C291.552 118.79 289.102 119.551 287.107 120.17C285.104 120.781 283.542 121.236 282.481 121.526C281.963 121.667 281.563 121.777 281.272 121.856C281.005 121.926 280.871 121.957 280.864 121.95C280.856 121.95 281.005 121.895 281.272 121.816C281.555 121.73 281.955 121.605 282.473 121.448C283.542 121.119 285.089 120.632 287.068 120.013C289.055 119.37 291.489 118.586 294.246 117.496C294.929 117.214 295.659 116.94 296.327 116.564C296.994 116.164 297.607 115.631 298.157 115.011C299.248 113.765 300.128 112.189 300.756 110.464L300.787 110.37L300.882 110.362C301.706 110.284 302.554 110.205 303.473 110.119L303.56 110.111L303.615 110.182C305.916 113.192 308.429 116.485 311.138 120.021L311.209 120.115L311.154 120.217C310.691 121.064 310.227 121.926 309.74 122.812L309.677 122.922L309.544 122.898C307.769 122.624 305.853 122.671 304.039 123.212C303.136 123.486 302.264 123.902 301.502 124.482C300.74 125.062 300.049 125.776 299.374 126.512C296.696 129.468 294.214 132.816 291.74 136.289L291.67 136.383L291.552 136.375C288.387 136.077 285.112 136.148 281.877 136.744C279.089 137.253 276.411 138.155 274.039 139.323L273.874 139.401L273.772 139.252C273.615 139.017 273.466 138.782 273.324 138.57L273.214 138.398L273.387 138.288C277.738 135.419 281.963 132.643 285.953 130.017L286.086 129.931L286.196 130.048C286.298 130.15 286.392 130.252 286.479 130.346L286.463 130.331C287.044 130.809 287.782 131.075 288.521 131.06C289.259 131.044 289.973 130.73 290.46 130.205C290.955 129.68 291.206 128.959 291.183 128.253C291.167 127.54 290.884 126.85 290.437 126.316C289.549 125.227 287.924 124.835 286.738 125.462C285.513 126.05 284.994 127.563 285.387 128.77L285.426 128.888L285.324 128.959C280.714 132.228 276.552 135.184 272.995 137.708L272.885 137.786L272.806 137.669C272.602 137.363 272.406 137.065 272.233 136.806L272.17 136.712L272.248 136.634C276.175 132.839 278.625 129.131 279.772 126.387C280.989 123.651 280.769 121.91 280.864 121.95Z" fill="#263238"/>
<path d="M301.078 110.997C301.125 110.966 301.628 111.632 302.413 112.738C303.269 113.953 304.298 115.427 305.445 117.057C306.646 118.727 307.793 120.193 308.664 121.22C309.528 122.255 310.094 122.867 310.047 122.914C310.015 122.953 309.371 122.404 308.445 121.409C307.518 120.421 306.324 118.97 305.115 117.293C303.905 115.615 302.892 114.039 302.178 112.894C301.447 111.75 301.031 111.028 301.078 110.997Z" fill="#263238"/>
<path d="M365.79 71.9618C365.805 71.9853 365.507 72.2048 364.949 72.5733C364.321 72.981 363.52 73.4906 362.578 74.1021C360.559 75.38 357.763 77.1205 354.661 79.0178C351.559 80.915 348.732 82.6163 346.682 83.8315C345.709 84.396 344.884 84.8742 344.24 85.2506C343.659 85.5798 343.329 85.7445 343.313 85.721C343.298 85.6975 343.596 85.4779 344.154 85.1095C344.782 84.7018 345.583 84.1922 346.525 83.5807C348.544 82.3027 351.339 80.5623 354.442 78.665C357.544 76.7677 360.371 75.0664 362.421 73.8512C363.394 73.2867 364.219 72.8085 364.863 72.4322C365.452 72.1029 365.774 71.9304 365.79 71.9618Z" fill="#455A64"/>
<path d="M347.02 83.4552C347.02 83.4552 345.929 78.8375 344.405 77.9751C343.714 77.5831 342.779 79.0021 342.999 80.2173C343.219 81.4325 343.722 85.4231 343.722 85.4231L347.02 83.4552Z" fill="#FFBF9D"/>
<path d="M321.74 108.927C321.74 108.927 323.091 104.223 323.437 103.486C323.782 102.749 322.557 99.096 323.075 98.2101C323.594 97.3242 322.722 95.9443 321.128 96.9165C319.526 97.8887 318.67 100.844 319.384 102.702C319.384 102.702 314.712 97.7475 313.848 97.9514C312.984 98.1631 312.387 98.6962 312.316 99.7546C312.316 99.7546 310.054 98.2728 309.34 101.26C309.34 101.26 307.659 100.813 307.408 103.557C307.408 103.557 306.206 103.251 306.144 105.266C306.081 107.281 305.712 109.327 307.345 110.244C308.979 111.162 316.706 116.43 316.706 116.43L324.332 122.428L333.56 116.634L321.74 108.927Z" fill="#FFBF9D"/>
<path d="M314.421 103.275C314.507 103.196 313.95 102.452 313.329 101.487C312.701 100.531 312.253 99.7075 312.143 99.7546C312.041 99.7938 312.34 100.711 312.984 101.707C313.628 102.702 314.342 103.353 314.421 103.275Z" fill="#FF9A6C"/>
<path d="M310.848 105.76C310.958 105.721 310.714 104.725 310.306 103.526C309.897 102.326 309.481 101.385 309.371 101.424C309.261 101.464 309.505 102.459 309.913 103.659C310.321 104.851 310.738 105.791 310.848 105.76Z" fill="#FF9A6C"/>
<path d="M308.319 106.999C308.429 106.975 308.366 106.168 308.178 105.196C307.989 104.216 307.746 103.447 307.636 103.463C307.526 103.486 307.589 104.294 307.777 105.266C307.965 106.246 308.209 107.022 308.319 106.999Z" fill="#FF9A6C"/>
<path d="M315.976 104.796C316.086 104.819 316.282 104.364 316.785 104.106C317.279 103.824 317.766 103.918 317.806 103.808C317.821 103.761 317.711 103.651 317.484 103.604C317.256 103.549 316.91 103.573 316.588 103.745C316.266 103.918 316.054 104.192 315.976 104.412C315.897 104.631 315.929 104.78 315.976 104.796Z" fill="#FF9A6C"/>
<path d="M313.298 106.795C313.408 106.842 313.667 106.442 314.162 106.207C314.649 105.956 315.128 105.987 315.151 105.878C315.198 105.776 314.617 105.525 313.981 105.846C313.337 106.16 313.188 106.771 313.298 106.795Z" fill="#FF9A6C"/>
<path d="M309.905 108.872C310.015 108.896 310.196 108.449 310.659 108.159C311.115 107.845 311.594 107.861 311.617 107.751C311.625 107.696 311.507 107.618 311.28 107.595C311.052 107.571 310.73 107.626 310.432 107.822C310.141 108.018 309.953 108.292 309.89 108.504C309.827 108.716 309.858 108.865 309.905 108.872Z" fill="#FF9A6C"/>
<path d="M383.601 27.8539C380.844 27.0072 377.75 27.3208 375.221 28.7163C373.816 26.9131 371.405 25.9567 369.143 26.3016C366.881 26.6466 364.863 28.2851 364.062 30.4255C361.659 29.4533 358.619 30.4882 357.3 32.7147C355.981 34.9413 356.554 38.1008 358.572 39.7315C356.609 40.5469 355.054 42.3031 354.489 44.3493C353.923 46.3955 354.355 48.7005 355.627 50.4018C353.523 51.421 353.161 54.2669 353.476 56.5797C353.79 58.8925 354.457 61.3778 353.413 63.4711C352.612 65.0861 350.955 66.0896 349.816 67.493C348.685 68.8963 348.284 71.3189 349.824 72.2754C347.209 72.6282 345.19 75.4035 345.669 77.9986C346.148 80.5858 349.023 82.4674 351.591 81.8637C350.735 83.6826 351.104 85.9327 352.227 87.6026C353.35 89.2725 355.14 90.4171 357.033 91.0992C362.491 93.0749 369.104 91.209 372.724 86.6775L390.017 33.2949C388.737 30.7155 386.357 28.7007 383.601 27.8539Z" fill="#263238"/>
<path d="M347.931 294.728L349.565 311.678C349.565 311.678 331.055 318.585 330.85 321.995L365.845 322.089L365.829 319.533L364.361 310.815L362.201 293.873L347.931 294.728Z" fill="#455A64"/>
<path d="M360.096 309.051C360.787 309.239 361.274 310.016 361.109 310.713C360.952 311.411 360.167 311.905 359.468 311.733C358.769 311.56 358.164 310.643 358.4 309.969C358.635 309.294 359.593 308.761 360.23 309.098" fill="#E0E0E0"/>
<path d="M365.845 322.089L365.829 319.533L332.256 320.184C332.256 320.184 330.662 320.882 330.842 322.003L365.845 322.089Z" fill="#263238"/>
<path d="M348.976 311.497C348.984 311.67 349.855 311.748 350.719 312.305C351.599 312.838 352.038 313.598 352.203 313.528C352.368 313.497 352.101 312.454 351.049 311.795C349.997 311.129 348.936 311.341 348.976 311.497Z" fill="#263238"/>
<path d="M345.23 313.057C345.19 313.23 345.944 313.52 346.541 314.257C347.162 314.978 347.311 315.778 347.484 315.762C347.649 315.794 347.766 314.767 347.005 313.865C346.259 312.963 345.23 312.893 345.23 313.057Z" fill="#263238"/>
<path d="M343.102 317.55C343.259 317.589 343.502 316.711 343.047 315.762C342.599 314.806 341.774 314.429 341.704 314.571C341.602 314.712 342.136 315.229 342.497 316.013C342.882 316.797 342.929 317.534 343.102 317.55Z" fill="#263238"/>
<path d="M347.735 307.421C347.806 307.577 348.607 307.334 349.596 307.405C350.586 307.452 351.355 307.781 351.45 307.632C351.552 307.507 350.798 306.864 349.635 306.801C348.473 306.731 347.649 307.287 347.735 307.421Z" fill="#263238"/>
<path d="M390.936 295.206L392.436 311.874C392.436 311.874 374.209 318.545 373.989 321.901L408.371 322.207V319.698L406.981 311.121L404.954 294.469L390.936 295.206Z" fill="#455A64"/>
<path d="M402.795 309.349C403.478 309.537 403.941 310.306 403.784 310.988C403.627 311.678 402.85 312.156 402.166 311.976C401.483 311.803 400.894 310.894 401.13 310.235C401.365 309.569 402.308 309.059 402.928 309.388" fill="#E0E0E0"/>
<path d="M408.37 322.199V319.69L375.394 320.121C375.394 320.121 373.824 320.796 373.996 321.901L408.37 322.199Z" fill="#263238"/>
<path d="M391.863 311.685C391.871 311.858 392.727 311.936 393.567 312.493C394.423 313.026 394.855 313.771 395.02 313.7C395.177 313.669 394.926 312.642 393.897 311.991C392.868 311.333 391.824 311.529 391.863 311.685Z" fill="#263238"/>
<path d="M388.164 313.199C388.125 313.363 388.871 313.661 389.444 314.39C390.049 315.104 390.19 315.888 390.363 315.88C390.528 315.911 390.646 314.9 389.907 314.014C389.185 313.112 388.172 313.034 388.164 313.199Z" fill="#263238"/>
<path d="M386.059 317.605C386.216 317.644 386.46 316.789 386.02 315.848C385.588 314.908 384.779 314.531 384.708 314.672C384.614 314.814 385.132 315.315 385.478 316.099C385.839 316.86 385.886 317.581 386.059 317.605Z" fill="#263238"/>
<path d="M390.669 307.679C390.74 307.836 391.533 307.601 392.499 307.671C393.473 307.718 394.226 308.048 394.313 307.899C394.415 307.773 393.677 307.138 392.53 307.076C391.391 306.997 390.583 307.538 390.669 307.679Z" fill="#263238"/>
<path d="M347.169 147.281C347.169 147.281 338.876 171.263 338.586 189.107C338.303 206.951 338.012 235.316 341.735 266.613C345.449 297.911 347.169 310.486 347.169 310.486H366.049C366.049 310.486 368.051 290.894 367.769 273.34C367.486 255.794 366.112 250.236 367.8 230.933C369.489 211.631 372.159 200.036 374.97 194.187C374.97 194.187 382.761 184.944 383.334 172.259C383.907 159.574 379.407 148.676 379.407 148.676L347.169 147.281Z" fill="#273D4A"/>
<path d="M363.944 180.93C364.258 181.894 369.858 221.212 373.949 238.554C378.033 255.896 382.58 260.49 383.381 274.594C384.3 290.823 388.761 310.486 388.761 310.486H408.865C408.865 310.486 406.038 280.49 403.211 257.049C400.384 233.607 396.3 204.701 396.928 196.03C397.556 187.359 399.127 176.649 396.928 164.497C394.729 152.345 389.978 149.147 389.978 149.147L372.92 148.378L363.944 180.93Z" fill="#273D4A"/>
<path d="M382.871 158.445C382.886 158.437 382.989 158.649 383.185 159.056C383.405 159.456 383.609 160.083 383.868 160.907C384.331 162.553 384.638 165.038 384.528 168.096C384.434 171.153 383.923 174.776 382.879 178.68C382.345 180.624 381.654 182.647 380.688 184.63C379.722 186.622 378.387 188.496 377.059 190.385C374.326 194.14 372.976 198.421 371.955 202.286C370.957 206.175 370.431 209.765 370.046 212.776C369.677 215.794 369.449 218.248 369.284 219.942C369.206 220.757 369.135 221.408 369.088 221.894C369.041 222.341 369.01 222.576 368.994 222.568C368.978 222.568 368.986 222.333 369.002 221.886C369.033 221.4 369.072 220.749 369.12 219.926C369.237 218.225 369.41 215.771 369.748 212.737C370.093 209.711 370.596 206.104 371.578 202.184C372.072 200.224 372.685 198.194 373.478 196.14C373.887 195.112 374.342 194.085 374.884 193.082C375.426 192.078 376.046 191.098 376.714 190.142C378.057 188.237 379.368 186.402 380.326 184.442C381.284 182.49 381.975 180.499 382.517 178.57C383.578 174.705 384.112 171.106 384.245 168.08C384.394 165.054 384.135 162.592 383.719 160.946C383.483 160.13 383.311 159.495 383.114 159.096C382.934 158.672 382.855 158.445 382.871 158.445Z" fill="#455A64"/>
<path d="M344.617 84.8429C344.617 84.8429 341.099 82.7575 340.015 83.2122C338.931 83.6669 338.397 84.6548 338.397 84.6548C338.397 84.6548 336.198 84.2314 336.387 86.654C336.387 86.654 334.376 86.6539 334.51 89.0138C334.51 89.0138 333.104 88.6924 333.402 90.6837C333.701 92.6829 335.845 96.9714 336.402 97.5986C337.573 98.9079 338.279 97.3477 338.075 96.6186C337.871 95.8973 336.709 91.9146 336.709 91.9146C336.709 91.9146 338.947 97.724 340.227 97.0811C340.957 96.7205 340.973 95.9287 340.439 94.2509C340.07 93.0828 339.426 90.8091 339.426 90.8091L341.366 94.5018C341.727 95.1917 342.748 95.1525 343.031 94.4234C343.133 94.1647 343.172 93.8432 343.101 93.4355C342.811 91.7421 341.892 89.5861 341.892 89.5861L343.572 92.0557C343.949 92.6124 344.735 92.73 345.245 92.2909C345.559 92.0165 345.787 91.6324 345.654 91.1149C345.316 89.8527 342.889 85.9562 342.889 85.9562L344.617 84.8429Z" fill="#FFBF9D"/>
<path d="M391.831 42.648L392.059 39.7707L374.907 35.4352C369.591 34.5493 363.481 39.5512 362.821 44.8903C362.083 50.8251 361.423 58.0928 361.863 62.5773C362.743 71.5933 369.536 73.1456 369.536 73.1456L369.041 82.0205L388.816 83.4552L391.831 42.648Z" fill="#FFBF9D"/>
<path d="M364.918 53.3967C364.863 54.0003 365.326 54.5491 365.955 54.6197C366.583 54.6903 367.14 54.259 367.203 53.6554C367.258 53.0517 366.795 52.5029 366.167 52.4323C365.538 52.3618 364.981 52.793 364.918 53.3967Z" fill="#263238"/>
<path d="M364.486 48.7946C364.62 48.9514 365.531 48.3634 366.763 48.4418C367.996 48.5045 368.868 49.1866 369.01 49.0455C369.08 48.9827 368.955 48.7083 368.57 48.3947C368.201 48.089 367.549 47.7675 366.779 47.7283C366.01 47.6891 365.342 47.9322 364.957 48.1987C364.565 48.4653 364.423 48.724 364.486 48.7946Z" fill="#263238"/>
<path d="M375.748 54.063C375.693 54.6667 376.156 55.2155 376.784 55.2861C377.413 55.3566 377.97 54.9254 378.033 54.3218C378.088 53.7181 377.625 53.1693 376.996 53.0987C376.368 53.0282 375.81 53.4594 375.748 54.063Z" fill="#263238"/>
<path d="M376.612 49.751C376.745 49.9078 377.656 49.3199 378.889 49.3983C380.122 49.461 380.994 50.1431 381.135 50.0019C381.206 49.9392 381.08 49.6648 380.695 49.3512C380.326 49.0455 379.682 48.724 378.913 48.6848C378.143 48.6456 377.475 48.8887 377.091 49.1552C376.698 49.4218 376.549 49.6805 376.612 49.751Z" fill="#263238"/>
<path d="M371.578 58.6259C371.585 58.5554 370.832 58.3751 369.591 58.1477C369.277 58.0928 368.986 58.0144 368.939 57.7949C368.876 57.5597 369.033 57.2304 369.206 56.8776C369.551 56.1328 369.905 55.3567 370.282 54.5335C371.782 51.2015 372.889 48.4496 372.756 48.3869C372.622 48.3242 371.295 50.9819 369.795 54.3218C369.434 55.145 369.088 55.929 368.758 56.6816C368.617 57.0344 368.389 57.4264 368.523 57.9047C368.593 58.1477 368.813 58.328 369.017 58.3986C369.214 58.4691 369.394 58.4848 369.551 58.5083C370.792 58.6494 371.57 58.6965 371.578 58.6259Z" fill="#263238"/>
<path d="M369.544 73.1691C369.544 73.1691 375.85 73.9218 382.03 70.6995C382.03 70.6995 378.63 76.7755 369.418 75.3957L369.544 73.1691Z" fill="#FF9A6C"/>
<path d="M376.902 45.5018C377.028 45.8389 378.261 45.6821 379.714 45.8546C381.166 46.0035 382.337 46.4269 382.533 46.1211C382.619 45.98 382.415 45.6586 381.944 45.3371C381.473 45.0157 380.727 44.7021 379.855 44.608C378.983 44.5139 378.182 44.6551 377.656 44.8667C377.114 45.0784 376.847 45.3371 376.902 45.5018Z" fill="#263238"/>
<path d="M364.784 45.7448C364.981 46.0427 365.853 45.8075 366.873 45.8624C367.902 45.8859 368.75 46.1839 368.97 45.9016C369.065 45.7683 368.947 45.4783 368.593 45.1882C368.24 44.8981 367.627 44.6394 366.928 44.6159C366.222 44.5923 365.601 44.804 365.224 45.0627C364.839 45.3215 364.698 45.5959 364.784 45.7448Z" fill="#263238"/>
<path d="M362.86 38.4615C364.879 35.8194 367.808 33.8907 371.028 33.0754L385.517 34.8943L386.75 34.8707C387.025 33.9613 388.564 33.4831 388.564 33.4831C389.923 32.4403 394.643 32.3855 397.933 35.8115C399.119 37.0503 399.959 40.1627 399.991 41.8719C399.999 42.5226 399.308 43.4085 399.85 43.7613C400.038 43.8867 401.609 43.8554 401.829 43.9024C405.512 44.7099 407.821 47.9714 407.153 52.8478C407.122 53.0909 407.035 53.3418 407.075 53.5848C407.137 53.969 407.452 54.2591 407.719 54.5413C409.47 56.3994 409.902 59.3786 408.732 61.6443C408.37 62.3421 407.868 63.0006 407.75 63.7768C407.53 65.1645 408.543 66.411 409.336 67.5792C411.7 71.0837 412.211 76.1718 409.431 79.3627C408.755 80.1389 407.884 80.8288 407.632 81.8245C407.507 82.3106 407.546 82.8202 407.554 83.3219C407.569 85.8699 406.226 88.7158 403.737 89.249C402.355 89.5469 400.674 89.1549 399.692 90.1741C399.261 90.6131 399.08 91.2325 398.813 91.7891C397.768 93.8981 395.106 95.0427 392.852 94.3528C390.606 93.6629 389.86 84.5528 390.182 82.2322C387.457 81.2443 385.447 81.0719 385.572 78.1789C385.572 78.1789 385.996 73.2083 385.187 70.7858C384.378 68.3632 385.996 63.2045 386.923 60.7035C387.842 58.2026 386.742 52.3696 386.499 50.049C386.46 49.6413 386.538 48.9435 386.695 48.0655V48.0576C386.797 47.4931 386.931 46.8581 387.08 46.176C387.135 45.541 387.661 42.1619 387.653 41.5661C387.622 39.3787 384.897 40.5469 382.816 41.2447C382.313 41.4171 381.787 41.5112 381.253 41.5269C379.541 41.5739 377.829 40.7664 376.776 39.4101C374.813 41.5034 371.64 42.3658 368.884 41.5661C367.769 43.1263 366.63 44.7021 365.138 45.9173C363.646 47.1325 361.737 47.9479 359.829 47.7362C359.743 44.4277 360.842 41.0957 362.86 38.4615Z" fill="#263238"/>
<path d="M372.473 61.6208C372.881 61.025 373.627 60.6722 374.389 60.7114C374.915 60.7427 375.465 60.9701 375.803 61.3778C376.14 61.7855 376.242 62.3891 375.968 62.8125C375.661 63.2907 374.986 63.424 374.397 63.2907C373.808 63.1575 373.297 62.7968 372.803 62.444C372.669 62.3421 372.528 62.2402 372.441 62.1069C372.355 61.9658 372.324 61.7776 372.418 61.66" fill="#FF9A6C"/>
<path d="M375.426 59.3864C375.229 59.3864 375.292 60.6957 374.216 61.6835C373.14 62.6714 371.735 62.6008 371.727 62.7811C371.711 62.8674 372.049 63.0242 372.646 63.0085C373.227 63.0007 374.067 62.7733 374.727 62.1696C375.387 61.5659 375.646 60.7898 375.661 60.2488C375.677 59.6922 375.512 59.3786 375.426 59.3864Z" fill="#263238"/>
<path d="M401.782 83.8864L369.19 79.3235C369.19 79.3235 357.842 94.7134 354.277 112.346C350.704 129.978 346.635 147.594 346.635 147.594L378.402 151.499C381.708 151.906 385.054 151.859 388.352 151.365L391.659 150.864L388.941 139.668C393.481 128.355 396.795 118.68 398.758 110.699C403.022 93.3885 401.782 83.8864 401.782 83.8864Z" fill="#FDB614"/>
<path d="M323.963 108.23L338.405 117.983C338.405 117.983 347.688 101.683 350.334 95.8504C352.973 90.0174 357.292 82.6321 361.894 80.4526C366.497 78.2653 373.894 79.9587 373.894 79.9587L369.049 99.4097L361.368 116.587C361.368 116.587 352.777 133.757 347.688 137.206C342.599 140.648 336.45 138.555 333.552 136.587C330.654 134.619 315.937 118.43 315.937 118.43L323.963 108.23Z" fill="#FDB614"/>
<path d="M339.968 126.952C339.858 126.975 339.387 125.086 338.923 122.726C338.46 120.366 338.169 118.445 338.287 118.422C338.397 118.398 338.868 120.288 339.332 122.647C339.795 124.999 340.078 126.928 339.968 126.952Z" fill="#263238"/>
<g opacity="0.3">
<path d="M358.384 121.613C361.667 120.193 364.989 117.371 366.559 114.165C368.13 110.958 368.766 106.191 367.879 102.734C364.926 108.629 361.243 116.524 358.384 121.613Z" fill="#CC8F15"/>
</g>
<g opacity="0.3">
<path d="M400.674 87.7829L379.188 85.8699C378.402 87.6731 379.557 90.0408 381.465 90.5426C380.311 92.5653 380.279 95.1839 381.371 97.2379C382.47 99.292 384.661 100.727 386.986 100.899C387.559 100.946 388.156 100.915 388.698 101.111C389.892 101.542 390.457 102.844 391.172 103.886C392.114 105.258 393.543 106.34 395.177 106.662C396.81 106.983 398.64 106.45 399.7 105.164C400.753 103.886 400.926 102.122 401.012 100.468C401.224 96.2423 401.106 92.0008 400.674 87.7829Z" fill="#CC8F15"/>
</g>
<path d="M405.614 74.5647L387.276 54.1963C387.944 59.3629 385.996 64.5059 383.648 69.1707C382.313 71.8207 380.829 74.9723 382.227 77.5909C381.08 78.8688 379.918 80.1703 379.195 81.7226C378.473 83.2749 378.245 85.1487 378.999 86.6853C379.753 88.2219 381.669 89.2333 383.271 88.6139C382.509 90.6915 383.138 93.2003 384.787 94.6743C386.436 96.1482 388.996 96.5088 390.983 95.5367C391.486 97.6378 392.625 99.6527 394.415 100.868C396.206 102.083 398.695 102.365 400.556 101.268C402.425 100.17 403.368 97.5907 402.37 95.6699C406.407 94.7762 408.928 90.4407 409.046 86.3168C409.164 82.2008 407.428 78.273 405.614 74.5647Z" fill="#263238"/>
<path d="M367.69 40.9703C367.698 40.9859 367.596 41.0251 367.384 41.0879C367.18 41.1427 366.858 41.1976 366.449 41.1506C365.648 41.08 364.415 40.5626 363.677 39.2455C363.3 38.6026 363.151 37.748 363.292 36.8856C363.441 36.0232 363.881 35.153 364.549 34.4474C365.216 33.7339 366.143 33.1773 367.18 32.9421C368.216 32.6912 369.339 32.7226 370.431 32.9735C371.067 33.1224 371.672 33.3498 372.214 33.6085L371.931 33.7183C372.701 31.8367 374.208 30.4647 375.771 29.7669C377.35 29.0456 378.96 29.0378 380.201 29.3043C381.449 29.5709 382.36 30.0962 382.918 30.5039C383.2 30.7077 383.405 30.888 383.53 31.0213C383.656 31.1546 383.719 31.2251 383.711 31.233C383.687 31.2565 383.405 30.9978 382.831 30.6293C382.258 30.2687 381.355 29.7983 380.146 29.5787C378.944 29.3514 377.413 29.3984 375.928 30.104C374.452 30.7861 373.038 32.1032 372.316 33.8751L372.229 34.0789L372.033 33.9848C371.507 33.7339 370.934 33.5301 370.329 33.3811C369.292 33.1381 368.232 33.1146 367.266 33.3419C366.292 33.5615 365.444 34.0632 364.816 34.7218C364.188 35.3725 363.763 36.1722 363.622 36.9562C363.473 37.748 363.599 38.5163 363.928 39.12C364.58 40.3509 365.719 40.8919 366.465 41.0016C367.25 41.1271 367.682 40.9154 367.69 40.9703Z" fill="#455A64"/>
<path d="M406.564 53.7808C406.533 53.7651 406.721 53.4045 406.918 52.6989C407.106 52.0011 407.287 50.9349 407.082 49.6413C406.886 48.3634 406.258 46.8424 404.939 45.6899C403.651 44.5453 401.719 43.7691 399.692 43.9808L399.386 44.0122L399.473 43.7143C399.645 43.1263 399.755 42.4912 399.787 41.8327C399.897 39.5669 399.072 37.4109 397.792 35.9291C396.52 34.416 394.823 33.632 393.378 33.2949C391.918 32.9499 390.677 33.044 389.852 33.1851C389.02 33.3341 388.58 33.5066 388.572 33.4674C388.564 33.4517 388.674 33.4047 388.878 33.3184C389.083 33.2243 389.405 33.1303 389.821 33.0283C390.653 32.8323 391.926 32.6912 393.441 33.0048C394.933 33.3184 396.724 34.1024 398.083 35.6783C399.441 37.2149 400.313 39.4728 400.195 41.8483C400.164 42.5383 400.038 43.2125 399.857 43.824L399.638 43.5575C401.805 43.3379 403.831 44.1768 405.182 45.3999C406.564 46.6307 407.192 48.2536 407.357 49.5786C407.538 50.927 407.302 52.0247 407.067 52.7224C406.949 53.0752 406.831 53.3339 406.729 53.5064C406.635 53.7024 406.58 53.7887 406.564 53.7808Z" fill="#455A64"/>
<path d="M389.059 88.6767C389.051 88.6845 388.965 88.6374 388.8 88.5198C388.635 88.4101 388.415 88.2219 388.148 87.9632C387.622 87.4379 386.939 86.5677 386.467 85.2976C386.004 84.0432 385.784 82.3654 386.303 80.6328C386.821 78.9158 388.085 77.2381 389.907 76.2267C390.622 75.8269 391.399 75.5446 392.161 75.4035L392.043 75.7407C390.826 74.3843 390.426 72.5811 390.645 71.0837C390.85 69.5549 391.706 68.3789 392.562 67.6733C393.426 66.952 394.297 66.6384 394.894 66.5051C395.193 66.4346 395.428 66.4111 395.593 66.4032C395.75 66.3954 395.836 66.4032 395.836 66.411C395.836 66.4424 395.507 66.4738 394.933 66.6462C394.368 66.8187 393.543 67.1637 392.742 67.8771C391.949 68.5827 391.179 69.7039 391.007 71.1307C390.826 72.5341 391.219 74.2197 392.35 75.4584L392.601 75.7328L392.24 75.8034C391.525 75.9366 390.795 76.2032 390.119 76.5874C388.399 77.5438 387.19 79.1354 386.68 80.7504C386.169 82.3811 386.342 83.9805 386.758 85.2035C387.174 86.4344 387.803 87.3047 388.282 87.8535C388.753 88.3944 389.083 88.6453 389.059 88.6767Z" fill="#455A64"/>
<path d="M388.753 43.8554L388.18 41.276C386.24 44.9608 385.58 49.3042 386.342 53.3967C386.695 55.3018 387.331 57.3402 386.507 59.0963C385.941 60.2959 384.787 61.1112 384.127 62.2559C383.287 63.7063 383.907 67.5243 383.695 68.2691C383.208 69.9783 381.543 71.0759 381.151 73.1456C380.758 75.2154 381.261 77.7163 383.122 78.7042C386.625 72.9339 390.214 66.9363 391.038 60.241C391.706 54.7216 390.449 49.1474 388.753 43.8554Z" fill="#263238"/>
<path d="M399.378 57.6851C399.378 57.7008 399.276 57.7087 399.08 57.7008C398.884 57.693 398.593 57.6773 398.232 57.6146C397.509 57.4891 396.41 57.2147 395.365 56.3288C394.855 55.8819 394.384 55.2704 394.109 54.5099C393.834 53.7573 393.763 52.8243 394.148 51.9619C394.525 51.1231 395.287 50.3704 396.315 50.1587C396.818 50.0647 397.376 50.1039 397.863 50.3783C398.35 50.6448 398.711 51.225 398.609 51.8287C398.562 52.1344 398.381 52.4088 398.137 52.5813C397.886 52.7538 397.603 52.8243 397.329 52.8322C396.787 52.8557 396.276 52.7067 395.836 52.4794C394.965 52.0403 394.227 51.4288 393.645 50.7546C392.467 49.3983 391.957 47.7754 391.91 46.4426C391.847 45.0941 392.169 44.0279 392.46 43.3536C392.609 43.0087 392.75 42.7578 392.852 42.5931C392.962 42.4285 393.025 42.3501 393.033 42.3579C393.064 42.3736 392.852 42.7264 392.609 43.4163C392.373 44.0984 392.106 45.1411 392.2 46.4347C392.287 47.7127 392.797 49.2415 393.928 50.5115C394.486 51.1466 395.192 51.7189 396.017 52.1266C396.41 52.3304 396.865 52.4559 397.305 52.4323C397.745 52.4245 398.13 52.1736 398.192 51.7659C398.255 51.3661 398.02 50.9349 397.651 50.7389C397.281 50.5194 396.81 50.488 396.394 50.5586C395.538 50.7232 394.839 51.3818 394.501 52.1187C394.156 52.8557 394.195 53.6946 394.439 54.3923C394.674 55.0979 395.098 55.6781 395.562 56.1093C396.512 56.9717 397.572 57.2853 398.263 57.4578C398.97 57.6146 399.378 57.6459 399.378 57.6851Z" fill="#455A64"/>
<path d="M407.334 64.3491C407.279 64.3099 407.648 63.7376 408.135 62.7576C408.614 61.7855 409.203 60.3586 409.242 58.7122C409.274 57.0736 408.614 55.6467 407.915 54.8471C407.216 54.0239 406.549 53.773 406.588 53.7024C406.596 53.6789 406.768 53.7181 407.051 53.8592C407.334 53.9925 407.727 54.2512 408.127 54.6589C408.928 55.4586 409.682 56.9639 409.651 58.7279C409.611 60.4762 408.944 61.9423 408.394 62.8987C407.821 63.8552 407.373 64.3727 407.334 64.3491Z" fill="#455A64"/>
<path d="M388.415 140.193C388.431 140.24 387.614 140.515 386.256 140.813C384.897 141.111 382.996 141.393 380.876 141.479C378.756 141.557 376.839 141.416 375.465 141.228C374.091 141.04 373.258 140.828 373.266 140.773C373.274 140.711 374.122 140.82 375.496 140.93C376.871 141.048 378.763 141.134 380.86 141.056C382.957 140.969 384.842 140.734 386.201 140.515C387.559 140.303 388.4 140.131 388.415 140.193Z" fill="#263238"/>
<path d="M368.098 102.208C368.114 102.216 368.051 102.397 367.918 102.749C367.792 103.102 367.557 103.596 367.274 104.247C366.685 105.533 365.805 107.383 364.69 109.649C362.444 114.18 359.287 120.405 355.667 127.218C354.748 128.912 353.892 130.597 352.902 132.142C351.905 133.678 350.79 135.074 349.533 136.203C348.284 137.347 346.887 138.21 345.465 138.727C344.044 139.252 342.614 139.401 341.334 139.331C338.766 139.166 336.834 138.312 335.554 137.724C334.918 137.41 334.431 137.144 334.109 136.955C333.787 136.767 333.622 136.657 333.63 136.65C333.638 136.634 333.819 136.72 334.148 136.885C334.478 137.049 334.973 137.292 335.617 137.583C336.905 138.124 338.837 138.923 341.342 139.049C342.591 139.104 343.965 138.931 345.339 138.414C346.714 137.896 348.057 137.049 349.266 135.928C350.491 134.815 351.575 133.443 352.557 131.93C353.53 130.417 354.379 128.723 355.297 127.038C358.91 120.225 362.114 114.023 364.423 109.531C365.546 107.304 366.465 105.493 367.125 104.192C367.431 103.557 367.682 103.071 367.831 102.726C367.996 102.373 368.083 102.201 368.098 102.208Z" fill="#263238"/>
<path d="M231.183 315.504H210.356V268.597H230.94C232.809 268.597 234.309 270.11 234.309 271.96V312.375C234.325 314.1 232.919 315.504 231.183 315.504Z" fill="#E0E0E0"/>
<path d="M231.183 315.504C231.176 315.472 231.694 315.551 232.526 315.159C232.935 314.955 233.406 314.602 233.767 314.045C233.948 313.771 234.097 313.434 234.176 313.065C234.262 312.689 234.254 312.281 234.246 311.842C234.23 308.306 234.215 303.234 234.191 296.962C234.176 290.674 234.168 283.195 234.152 274.892C234.144 273.857 234.16 272.791 234.136 271.749C234.081 270.737 233.492 269.757 232.605 269.232C232.165 268.965 231.655 268.801 231.136 268.777C230.61 268.754 230.037 268.769 229.487 268.769C228.38 268.769 227.249 268.769 226.118 268.769C221.587 268.769 216.906 268.769 212.1 268.777C211.511 268.777 210.922 268.777 210.349 268.777L210.529 268.597C210.506 286.88 210.49 303.391 210.482 315.504L210.349 315.37C216.773 315.402 221.971 315.409 225.584 315.425C227.367 315.441 228.765 315.457 229.723 315.457C230.186 315.464 230.539 315.472 230.799 315.48C231.058 315.488 231.183 315.504 231.183 315.504C231.183 315.504 231.058 315.519 230.814 315.527C230.555 315.535 230.194 315.535 229.738 315.551C228.772 315.558 227.382 315.574 225.6 315.582C221.987 315.598 216.788 315.613 210.364 315.637H210.231V315.504C210.215 303.383 210.199 286.872 210.184 268.597V268.417H210.364C210.93 268.417 211.527 268.417 212.116 268.417C216.914 268.417 221.602 268.417 226.134 268.424C227.265 268.424 228.388 268.424 229.503 268.424C230.068 268.432 230.602 268.417 231.168 268.44C231.741 268.471 232.314 268.652 232.801 268.95C233.783 269.53 234.443 270.62 234.498 271.733C234.521 272.823 234.505 273.85 234.505 274.9C234.49 283.203 234.474 290.69 234.466 296.97C234.443 303.242 234.427 308.322 234.411 311.85C234.411 312.289 234.419 312.713 234.325 313.105C234.238 313.489 234.081 313.834 233.885 314.124C233.5 314.696 233.013 315.049 232.589 315.245C232.165 315.449 231.804 315.504 231.568 315.519C231.301 315.511 231.183 315.504 231.183 315.504Z" fill="#606060"/>
<path d="M216.254 268.393H205.495V250.518H207.05C208.927 250.518 210.435 249.005 210.435 247.139C210.435 245.265 208.919 243.76 207.05 243.76H174.475C172.598 243.76 171.09 245.273 171.09 247.139C171.09 249.013 172.605 250.518 174.475 250.518H176.029V268.393H148.826C147.004 268.393 145.519 269.867 145.519 271.694V312.195C145.519 314.014 146.996 315.496 148.826 315.496H216.27C218.092 315.496 219.576 314.022 219.576 312.195V271.694C219.568 269.875 218.084 268.393 216.254 268.393Z" fill="#EBEBEB"/>
<path d="M216.254 268.393C216.254 268.393 216.521 268.362 217.024 268.471C217.519 268.581 218.288 268.871 218.909 269.687C219.215 270.079 219.474 270.612 219.561 271.231C219.639 271.858 219.592 272.517 219.608 273.254C219.616 274.712 219.616 276.398 219.623 278.287C219.639 285.868 219.655 296.844 219.678 310.392C219.678 310.815 219.678 311.246 219.678 311.67C219.678 312.093 219.694 312.54 219.592 312.987C219.388 313.865 218.815 314.665 218.021 315.143C217.629 315.386 217.181 315.543 216.718 315.605C216.246 315.668 215.799 315.637 215.343 315.637C214.432 315.637 213.521 315.637 212.595 315.637C208.888 315.637 205.032 315.645 201.042 315.653C193.056 315.66 184.527 315.668 175.558 315.668C171.066 315.668 166.472 315.676 161.768 315.676C159.412 315.676 157.04 315.676 154.645 315.676C153.443 315.676 152.242 315.676 151.032 315.676C150.428 315.676 149.815 315.676 149.218 315.676C148.629 315.7 147.938 315.645 147.357 315.362C146.179 314.845 145.339 313.606 145.315 312.305C145.315 311.074 145.307 309.835 145.307 308.597C145.307 306.119 145.307 303.618 145.307 301.101C145.307 296.068 145.307 290.957 145.307 285.782C145.307 281.721 145.307 277.699 145.307 273.724V272.235C145.307 271.749 145.292 271.215 145.449 270.714C145.731 269.71 146.501 268.863 147.467 268.471C147.946 268.268 148.48 268.205 148.983 268.205H150.451C151.433 268.205 152.399 268.205 153.381 268.205C161.155 268.205 168.718 268.213 176.014 268.213L175.841 268.385C175.841 262.215 175.849 256.257 175.849 250.51L176.006 250.675H174.93C174.585 250.667 174.208 250.69 173.838 250.62C173.1 250.494 172.425 250.126 171.907 249.601C170.862 248.55 170.611 246.841 171.278 245.555C171.6 244.904 172.126 244.379 172.747 244.034C173.061 243.869 173.399 243.744 173.744 243.666C174.09 243.595 174.459 243.595 174.789 243.595C176.14 243.595 177.475 243.595 178.802 243.595C184.087 243.603 189.137 243.603 193.919 243.611C198.71 243.634 203.21 243.587 207.466 243.658C208.558 243.791 209.532 244.457 210.058 245.375C210.608 246.284 210.663 247.421 210.309 248.362C209.956 249.318 209.178 250.063 208.26 250.4C207.812 250.573 207.309 250.628 206.854 250.62C206.391 250.62 205.935 250.62 205.487 250.62L205.59 250.518C205.574 257.934 205.558 263.869 205.55 268.393L205.48 268.322C208.998 268.338 211.684 268.354 213.498 268.354C214.401 268.362 215.076 268.369 215.548 268.369C216.027 268.377 216.254 268.393 216.254 268.393C216.254 268.393 216.019 268.409 215.563 268.417C215.1 268.424 214.409 268.424 213.514 268.432C211.699 268.44 209.006 268.456 205.495 268.464H205.425V268.393C205.417 263.869 205.401 257.934 205.385 250.518V250.408H205.487C205.935 250.408 206.398 250.408 206.854 250.408C207.309 250.416 207.757 250.361 208.189 250.196C209.045 249.883 209.767 249.177 210.097 248.283C210.427 247.397 210.364 246.339 209.862 245.5C209.367 244.646 208.464 244.026 207.443 243.909C203.249 243.862 198.71 243.901 193.935 243.893C189.152 243.901 184.103 243.901 178.818 243.909C177.498 243.909 176.163 243.909 174.804 243.909C174.459 243.909 174.145 243.909 173.823 243.971C173.501 244.042 173.195 244.152 172.912 244.301C172.346 244.622 171.867 245.1 171.569 245.696C170.964 246.864 171.184 248.425 172.142 249.381C172.606 249.859 173.234 250.189 173.901 250.306C174.231 250.377 174.577 250.353 174.938 250.353H176.014H176.179V250.518C176.179 256.257 176.187 262.223 176.187 268.393V268.565H176.014C168.718 268.565 161.148 268.573 153.381 268.573C152.407 268.573 151.433 268.573 150.451 268.573H148.983C148.496 268.565 148.048 268.628 147.608 268.809C146.744 269.161 146.053 269.914 145.794 270.816C145.653 271.262 145.661 271.733 145.669 272.235V273.724C145.669 277.699 145.669 281.721 145.669 285.782C145.669 290.949 145.669 296.06 145.669 301.101C145.669 303.618 145.669 306.119 145.669 308.597C145.669 309.835 145.669 311.066 145.676 312.297C145.7 313.465 146.446 314.578 147.506 315.041C148.04 315.292 148.606 315.339 149.218 315.323C149.831 315.323 150.436 315.323 151.032 315.323C152.242 315.323 153.443 315.323 154.645 315.323C157.04 315.323 159.42 315.323 161.768 315.323C166.464 315.323 171.066 315.331 175.558 315.331C184.535 315.339 193.063 315.347 201.042 315.347C205.032 315.355 208.888 315.355 212.595 315.362C213.521 315.362 214.44 315.362 215.343 315.362C215.791 315.355 216.262 315.386 216.678 315.331C217.103 315.276 217.519 315.119 217.88 314.908C218.61 314.469 219.144 313.732 219.333 312.916C219.435 312.517 219.419 312.093 219.419 311.662C219.419 311.231 219.419 310.807 219.419 310.384C219.443 296.837 219.458 285.868 219.474 278.279C219.482 276.39 219.49 274.704 219.49 273.246C219.474 272.517 219.529 271.835 219.459 271.239C219.38 270.635 219.129 270.126 218.83 269.726C218.226 268.926 217.472 268.628 216.993 268.503C216.521 268.385 216.254 268.417 216.254 268.393Z" fill="#606060"/>
<path d="M201.325 250.369C201.325 250.463 194.556 250.549 186.208 250.549C177.852 250.549 171.09 250.463 171.09 250.369C171.09 250.275 177.859 250.189 186.208 250.189C194.556 250.189 201.325 250.275 201.325 250.369Z" fill="#263238"/>
<path d="M212.869 311.458H151.747C150.098 311.458 148.755 310.117 148.755 308.471V296.005H215.862V308.471C215.862 310.117 214.527 311.458 212.869 311.458Z" fill="white"/>
<path d="M215.877 275.378C215.972 275.378 216.058 280.341 216.058 286.448C216.058 292.564 215.972 297.519 215.877 297.519C215.783 297.519 215.697 292.564 215.697 286.448C215.697 280.333 215.775 275.378 215.877 275.378Z" fill="#263238"/>
<path d="M148.896 276.57C148.99 276.57 149.077 281.462 149.077 287.483C149.077 293.52 148.99 298.405 148.896 298.405C148.802 298.405 148.716 293.512 148.716 287.483C148.716 281.462 148.802 276.57 148.896 276.57Z" fill="#263238"/>
<path d="M228.097 311.505H222.349V295.966H231.38V308.236C231.372 310.047 229.904 311.505 228.097 311.505Z" fill="white"/>
</svg>
