<svg width="41" height="17" viewBox="0 0 41 17" fill="none" xmlns="http://www.w3.org/2000/svg">
<path d="M35.9649 7.92518C36.0471 6.58173 36.4126 5.95435 37.1026 5.95435C37.7925 5.95435 38.1317 6.59569 38.1802 7.92518H35.9649ZM41 8.72418C41 7.22307 40.6715 6.03729 40.0316 5.20298C39.3745 4.35552 38.3979 3.9203 37.151 3.9203C34.5973 3.9203 33.0121 5.809 33.0121 8.83258C33.0121 10.5267 33.4359 11.797 34.2704 12.61C35.0212 13.3359 36.098 13.6997 37.4902 13.6997C38.7732 13.6997 39.9593 13.3967 40.7092 12.9007L40.3807 10.8436C39.5907 11.2613 38.7083 11.4736 37.8147 11.4612C37.2332 11.4612 36.834 11.3396 36.544 11.0859C36.2286 10.8198 36.0512 10.3838 35.9871 9.76708H40.9614C40.9762 9.61926 41 8.94179 41 8.72418ZM28.9939 10.7566C28.7475 11.2165 28.377 11.4587 27.9409 11.4587C27.6601 11.463 27.3823 11.4008 27.1302 11.2772V6.80016C27.6386 6.26722 28.0986 6.20727 28.2678 6.20727C29.03 6.20727 29.4054 7.02845 29.4054 8.63878C29.4054 9.55686 29.2723 10.2729 28.9939 10.7566ZM31.4868 4.94841C30.9545 4.25862 30.2161 3.9203 29.2691 3.9203C28.3976 3.9203 27.6353 4.28326 26.9207 5.04531L26.7638 4.10178H24.1289V17L27.1302 16.5073V13.4788C27.5684 13.6193 28.0253 13.6929 28.4855 13.6972C29.2362 13.6972 30.3253 13.5034 31.1722 12.5837C31.9837 11.7001 32.3952 10.3329 32.3952 8.53038C32.3952 6.9332 32.0921 5.72278 31.4868 4.94841ZM19.9332 4.10178H22.9469V13.5157H19.9332V4.10178ZM21.4462 3.16974C21.7598 3.16974 22.0663 3.07679 22.327 2.90264C22.5876 2.7285 22.7908 2.48097 22.9108 2.19138C23.0308 1.90178 23.0622 1.58311 23.001 1.27568C22.9399 0.968244 22.7889 0.685846 22.5672 0.464198C22.3455 0.24255 22.063 0.0916065 21.7555 0.0304539C21.448 -0.0306987 21.1292 0.000685831 20.8396 0.120641C20.5499 0.240596 20.3023 0.443733 20.1281 0.704363C19.9539 0.964994 19.861 1.27142 19.861 1.58487C19.8603 1.79318 19.9009 1.99957 19.9803 2.19214C20.0597 2.38472 20.1765 2.5597 20.3238 2.707C20.4712 2.8543 20.6462 2.97101 20.8388 3.05043C21.0314 3.12984 21.2379 3.17039 21.4462 3.16974ZM18.6388 3.97285C17.7911 3.97285 17.1135 4.41793 16.8473 5.21612L16.6658 4.10342H14.0374V13.5157H17.0395V7.40455C17.4141 6.94469 17.9472 6.77882 18.6733 6.77882C18.8514 6.77441 19.0296 6.7865 19.2055 6.81494V4.0443C19.02 3.99834 18.8298 3.97437 18.6388 3.97285ZM12.8817 6.32963L13.2448 4.10342H11.3285V1.39929L8.75098 1.82301L8.3789 4.10178L7.47538 4.24877L7.13615 6.32799H8.37479V10.6958C8.37479 11.8332 8.66556 12.6198 9.25859 13.1043C9.75142 13.5034 10.4693 13.6972 11.4763 13.6972C12.0084 13.6999 12.5381 13.6263 13.0493 13.4788V11.1171C12.7643 11.1924 12.4722 11.237 12.1778 11.2501C11.5847 11.2501 11.3309 10.9479 11.3309 10.2581V6.32799L12.8817 6.32963ZM4.28432 7.6468C3.40051 7.31833 2.91672 7.06623 2.91672 6.66713C2.91672 6.32799 3.19517 6.13419 3.69128 6.13419C4.59891 6.13419 5.53117 6.48565 6.17267 6.80016L6.53572 4.56164C5.59884 4.12938 4.57769 3.91033 3.5459 3.9203C2.52903 3.9203 1.68219 4.18636 1.07683 4.68235C0.447653 5.20298 0.120743 5.95271 0.120743 6.86011C0.120743 8.50246 1.12529 9.20785 2.75901 9.80074C3.81202 10.176 4.16358 10.4421 4.16358 10.8535C4.16358 11.2649 3.82435 11.4825 3.20749 11.4825C2.44443 11.4825 1.18607 11.1072 0.36305 10.6236L0 12.8859C0.70228 13.2858 2.0091 13.6972 3.36766 13.6972C4.44531 13.6972 5.33897 13.4427 5.94597 12.9582C6.62361 12.4252 6.97434 11.6394 6.97434 10.6227C6.97434 8.94097 5.94597 8.24133 4.2876 7.64598L4.28432 7.6468Z" fill="#626EEF"/>
</svg>
