<svg width="91" height="45" viewBox="0 0 91 45" fill="none" xmlns="http://www.w3.org/2000/svg">
<path fill-rule="evenodd" clip-rule="evenodd" d="M73.4282 11.3403L62.4899 11.274V3.95215C62.4899 2.86089 62.0381 1.87285 61.3272 1.165C60.6088 0.449779 59.6238 0 58.5204 0H17.3739C16.2779 0 15.2855 0.449779 14.5745 1.15763C13.8562 1.87285 13.4118 2.85351 13.4118 3.94478C13.4118 4.5494 13.8858 5.01393 14.4857 5.01393C15.0855 5.01393 15.5595 4.54203 15.5595 3.94478C15.5595 3.45076 15.7595 2.98624 16.1001 2.66918C16.4334 2.33737 16.8851 2.13092 17.3813 2.13092H58.5278C59.024 2.13092 59.4683 2.33 59.809 2.66918C60.1422 3.00098 60.3496 3.45076 60.3496 3.94478V37.4939H51.8552C51.2479 37.4939 50.7813 37.9658 50.7813 38.563C50.7813 39.1455 51.2553 39.6321 51.8552 39.6321H61.416C62.0233 39.6321 62.4899 39.1602 62.4899 38.563V37.3316H68.9921C69.4883 26.1683 85.5588 24.6346 87.1955 37.3316H90.7355C91.202 34.8542 91.0317 31.9638 90.38 28.7785C89.6246 25.0623 89.8468 25.7849 86.3587 24.4503L79.2491 21.2797L73.4282 11.3403ZM13.6266 23.1968C14.2265 23.1968 14.7079 23.6834 14.7079 24.2733C14.7079 24.8706 14.2191 25.3498 13.6266 25.3498H5.93943C5.33956 25.3498 4.85818 24.8632 4.85818 24.2733C4.85818 23.6761 5.34696 23.1968 5.93943 23.1968H13.6266ZM13.6266 16.1404C14.2265 16.1404 14.7079 16.6271 14.7079 17.2169C14.7079 17.8142 14.2191 18.2935 13.6266 18.2935H3.90284C3.30297 18.2935 2.8216 17.8068 2.8216 17.2169C2.8216 16.6197 3.31038 16.1404 3.90284 16.1404H13.6266ZM13.6266 9.08406C14.2265 9.08406 14.7079 9.5707 14.7079 10.1606C14.7079 10.7578 14.2191 11.2371 13.6266 11.2371H1.08124C0.488781 11.2445 0 10.7578 0 10.168C0 9.5707 0.488781 9.09143 1.08124 9.09143H13.6266V9.08406ZM29.7045 37.5012C30.2896 37.5012 30.7784 37.9731 30.7784 38.5704C30.7784 39.1529 30.3044 39.6395 29.7045 39.6395H17.3961C16.3001 39.6395 15.3077 39.1676 14.5968 38.4377C13.8784 37.7003 13.4341 36.6754 13.4341 35.6063V31.3223C13.4341 30.7398 13.908 30.2532 14.5079 30.2532C15.1152 30.2532 15.5817 30.7251 15.5817 31.3223V35.6063C15.5817 36.1224 15.8039 36.609 16.1446 36.9703C16.4778 37.3021 16.9074 37.5307 17.4036 37.5307L29.7045 37.5012ZM40.6428 30.4891C36.6067 30.4891 33.3556 33.7482 33.3556 37.7446C33.3556 41.7631 36.6289 45 40.6428 45C44.679 45 47.9301 41.7409 47.9301 37.7446C47.9301 33.726 44.6568 30.4891 40.6428 30.4891ZM40.6428 34.9574C39.095 34.9574 37.8435 36.2109 37.8435 37.7446C37.8435 39.2856 39.1025 40.5317 40.6428 40.5317C42.1907 40.5317 43.4422 39.2782 43.4422 37.7446C43.4496 36.2035 42.1907 34.9574 40.6428 34.9574ZM78.0938 30.4891C74.0577 30.4891 70.8065 33.7482 70.8065 37.7446C70.8065 41.7631 74.0799 45 78.0938 45C82.13 45 85.3811 41.7409 85.3811 37.7446C85.3811 33.726 82.1077 30.4891 78.0938 30.4891ZM78.0938 34.9574C76.546 34.9574 75.2944 36.2109 75.2944 37.7446C75.2944 39.2856 76.5534 40.5317 78.0938 40.5317C79.6416 40.5317 80.8932 39.2782 80.8932 37.7446C80.8932 36.2035 79.6416 34.9574 78.0938 34.9574ZM70.6288 14.4003L65.2004 14.3339V21.2944H74.3021L70.6288 14.4003Z" fill="#FDB614"/>
</svg>
